<svg xmlns="http://www.w3.org/2000/svg" viewBox="0 0 144 48">
  <g fill="none" fill-rule="nonzero">
    <g fill="#000">
      <path d="M132.161724-.000156H11.441616c-.44004 0-.8748 0-1.313676.002556-.36738.0024-.731832.009372-1.10274.01524a15.857712 15.857712 0 00-2.40468.212052c-.7938911.13454715-1.56291298.38820689-2.281056.7524-.71726471.36727405-1.37264998.84450904-1.94238 1.414392-.572721.56828039-1.05012818 1.22513565-1.413864 1.945308-.36473971.71873894-.6176514 1.48893395-.75 2.283984a15.5916 15.5916 0 00-.21504 2.4024C.007044 9.396096.005868 9.76524 0 10.133208V37.87032c.005868.3726.007044.73356.01818 1.10628a15.5907839 15.5907839 0 00.21504 2.40228c.13198314.7955148.38490979 1.566152.75 2.28516.36357066.7178435.84104498 1.3720394 1.413864 1.93716.56756979.5724169 1.22337868 1.0499765 1.94238 1.41444.71813757.3651679 1.48707653.6203374 2.281056.75696a16.14616879 16.14616879 0 002.40468.21216c.370908.00816.73536.01284 1.10274.01284.438864.0024.87366.0024 1.313676.0024h120.720108c.43128 0 .86952 0 1.3008-.0024.36564 0 .74064-.00468 1.10628-.01284a15.93480416 15.93480416 0 002.4-.21216c.796541-.1375844 1.568237-.3926864 2.28984-.75696.718353-.3646745 1.373556-.8422211 1.94064-1.41444.571341-.5673338 1.049835-1.2210513 1.41792-1.93716.362351-.7195311.61287-1.4901066.74292-2.28516.133818-.7941149.208264-1.5970989.22272-2.40228.00468-.37272.00468-.73368.00468-1.10628.00936-.43596.00936-.86952.00936-1.31256V11.443356c0-.439452 0-.875388-.00936-1.310148 0-.367968 0-.737112-.00468-1.10508-.014453-.80522107-.088899-1.6082452-.22272-2.4024-.130413-.79459008-.380917-1.56472407-.74292-2.283984-.740731-1.44350871-1.915316-2.61851352-3.35856-3.35976-.721606-.36330314-1.493384-.6168955-2.28984-.7524a15.65273153 15.65273153 0 00-2.4-.212112c-.36564-.005856-.74064-.012888-1.10628-.015228-.43128-.0024-.86952-.0024-1.3008-.0024z"/>
      <path d="M10.133796 46.95c-.365616 0-.7224-.00468-1.085148-.01284a15.22457324 15.22457324 0 01-2.242968-.19572c-.69169164-.1191262-1.36175491-.3407226-1.988088-.65748-.62058995-.3141328-1.18661788-.7260326-1.6764-1.21992-.49687161-.4880697-.91053992-1.0541472-1.224612-1.6758-.31753289-.625693-.53728454-1.2963605-.6516-1.98864a14.8962116 14.8962116 0 01-.1998-2.25c-.007608-.25308-.017568-1.09572-.017568-1.09572V10.133208s.010608-.829692.017628-1.073448a14.84446814 14.84446814 0 01.198636-2.246484c.11452647-.6941759.33444825-1.36677736.652152-1.99452.31291779-.62122338.7242895-1.18772365 1.218168-1.67754.49332339-.4944703 1.06116193-.90849106 1.682808-1.226964.6248936-.31573968 1.29369053-.53577295 1.983984-.652728A15.10306838 15.10306838 0 019.0516 1.064652L10.134384 1.05h123.32226l1.09572.01524a14.86191763 14.86191763 0 012.23008.195108c.697282.11842208 1.373048.33999064 2.00508.65742 1.245382.64181526 2.258726 1.65722754 2.898 2.903916.312633.62340908.529162 1.29052411.64224 1.978704.124547.74880166.194252 1.505698.20856 2.264652.00348.33984.00348.70488.00348 1.068168.00948.45.00948.878316.00948 1.310148V36.55776c0 .43596 0 .86136-.00948 1.29024 0 .39024 0 .74772-.00468 1.11564a15.27749906 15.27749906 0 01-.20508 2.2242c-.111972.6972734-.330528 1.3731758-.648 2.004-.316292.6149054-.727585 1.1760794-1.21872 1.66284-.490223.4965416-1.05725.9108512-1.67928 1.227-.630281.3191924-1.305053.5416083-2.0016.65976a15.05060455 15.05060455 0 01-2.24304.19572c-.35148.00816-.71952.01284-1.07688.01284l-1.3008.0024L10.133796 46.95z"/>
    </g>
    <g fill="#FFF">
      <path d="M29.722656 24.360816c.0262284-2.0357651 1.0934915-3.9161927 2.827872-4.982472-1.0991129-1.56972868-2.8740575-2.52928998-4.789392-2.589216-2.015088-.211512-3.968628 1.205796-4.99548 1.205796-1.046724 0-2.627724-1.184796-4.3302-1.149768-2.24001449.0723701-4.27769139 1.31507458-5.367504 3.273444-2.3208 4.018104-.589692 9.923364 1.63344 13.171296 1.11228 1.59042 2.412216 3.36696 4.113156 3.30396 1.664472-.069036 2.28612-1.061376 4.29528-1.061376 1.990512 0 2.573748 1.061376 4.3092 1.02132 1.786056-.028992 2.911356-1.597488 3.984612-3.202968.7991714-1.1332324 1.4141324-2.3857009 1.822104-3.711012-2.1212921-.8972025-3.5006121-2.9757788-3.503088-5.279004zM26.4447 14.653068c.9738319-1.16904971 1.4536019-2.67166506 1.337424-4.188744-1.4877986.15626458-2.8621078.86733561-3.849096 1.991532-.9746055 1.10917083-1.4683384 2.56026321-1.372452 4.033668 1.5077482.01552412 2.9393233-.66134014 3.884124-1.836456z"/>
      <g>
        <path d="M50.762724 32.56758h-5.68008l-1.364064 4.02774h-2.405856l5.38008-14.9016h2.4996l5.38008 14.9016H52.1256l-1.362876-4.02774zm-5.091804-1.858596h4.5024l-2.219532-6.536724h-.062112l-2.220756 6.536724zM66.191628 31.163676c0 3.376176-1.807032 5.545308-4.533984 5.545308-1.4095377.0737335-2.7372451-.6645472-3.418356-1.9008h-.0516v5.381256h-2.23008V25.730856h2.158632v1.807032h.041016c.71137-1.2285025 2.0405091-1.9664654 3.459372-1.920708 2.757372.000012 4.575 2.179692 4.575 5.546496zm-2.292192 0c0-2.1996-1.136724-3.645708-2.871096-3.645708-1.703904 0-2.85 1.476564-2.85 3.645708 0 2.189064 1.146096 3.65508 2.85 3.65508 1.734384 0 2.871096-1.435548 2.871096-3.65508zM78.149436 31.163676c0 3.376176-1.807032 5.545308-4.533984 5.545308-1.4095377.0737335-2.7372451-.6645472-3.418356-1.9008h-.0516v5.381256h-2.23008V25.730856H70.074v1.807032h.041016c.7113751-1.22850176 2.0405194-1.96646031 3.459384-1.920696 2.757456 0 4.575036 2.17968 4.575036 5.546484zm-2.29218 0c0-2.1996-1.136736-3.645708-2.871108-3.645708-1.703904 0-2.85 1.476564-2.85 3.645708 0 2.189064 1.146096 3.65508 2.85 3.65508 1.734384 0 2.871108-1.435548 2.871108-3.65508zM86.052564 32.443356c.16524 1.47774 1.6008 2.448 3.5625 2.448 1.879692 0 3.232032-.970308 3.232032-2.30274 0-1.156644-.815628-1.8492-2.746872-2.323824l-1.931244-.46524c-2.736324-.660936-4.006644-1.940628-4.006644-4.017192 0-2.571096 2.240628-4.337112 5.42226-4.337112 3.1488 0 5.30742 1.766016 5.38008 4.337112h-2.2512c-.13476-1.487112-1.364064-2.38476-3.160548-2.38476s-3.025776.908208-3.025776 2.23008c0 1.053516.78516 1.673436 2.705856 2.148l1.641792.403128c3.05742.723048 4.32774 1.9512 4.32774 4.130856 0 2.787888-2.220708 4.533984-5.75274 4.533984-3.304692 0-5.535936-1.70508-5.68008-4.4004l2.282844.000108zM100.015452 23.15976v2.571096h2.066016v1.766016h-2.066016v5.989452c0 .930468.413676 1.364064 1.321872 1.364064a6.96902452 6.96902452 0 00.733596-.0516v1.755468a6.12420844 6.12420844 0 01-1.238676.103128c-2.1996 0-3.05742-.826176-3.05742-2.933208v-6.227304h-1.57968v-1.766016H97.7748V23.15976h2.240652zM103.278 31.163676c0-3.418356 2.013276-5.566404 5.15274-5.566404 3.15 0 5.153904 2.148 5.153904 5.566404 0 3.42774-1.993356 5.566404-5.153904 5.566404-3.159432 0-5.15274-2.138676-5.15274-5.566404zm8.034372 0c0-2.34492-1.074612-3.728904-2.881644-3.728904-1.807032 0-2.880468 1.394532-2.880468 3.728904 0 2.354292 1.073436 3.72774 2.880468 3.72774s2.881644-1.373448 2.881644-3.72774zM115.42326 25.730856h2.126964v1.8492h.0516c.2966113-1.19041391 1.3873591-2.00969813 2.613276-1.962888a3.4393929 3.4393929 0 01.764064.083208v2.085936c-.3244428-.09914002-.6628925-.14465845-1.002-.13476-.6556221-.02659747-1.2901189.23468968-1.7368903.71525517-.4467713.48056549-.6611818 1.13239772-.5869337 1.78434483v6.444144h-2.23008v-10.86444zM131.26116 33.404292c-.3 1.97226-2.220708 3.325776-4.678128 3.325776-3.160548 0-5.12226-2.11758-5.12226-5.51484 0-3.407808 1.97226-5.617968 5.028516-5.617968 3.005856 0 4.896096 2.06484 4.896096 5.358984v.764064h-7.673436v.13476c-.0716431.8088379.2076499 1.6094753.7668359 2.1982559s1.3443691.908956 2.1558241.8790841c1.0822107.1013995 2.1025237-.5200348 2.508984-1.528128l2.117568.000012zm-7.5386851-3.242568h5.4316531c.0404705-.72680701-.2240922-1.4375363-.7299479-1.96096614-.5058558-.52342985-1.2071391-.81210137-1.9348921-.79646586-.7335099-.00437733-1.4383791.28442955-1.9579374.80222789-.5195582.51779834-.8107551 1.22168361-.8088757 1.95520411z"/>
      </g>
    </g>
    <g fill="#FFF">
      <path d="M45.391428 10.4772c.94673587-.06793898 1.87404272.29225691 2.52668555.98144618.65264283.68918927.9618295 1.63472757.84245845 2.57636182 0 2.2875-1.236324 3.6024-3.369144 3.6024h-2.586324V10.4772h2.586324zm-1.474224 6.1476h1.35c.67658633.04044241 1.33537983-.22612919 1.79345822-.72569785.45807838-.49956866.66667331-1.17894885.56786578-1.84950215.09161882-.66777056-.1199801-1.34154454-.57692271-1.83703922-.45694261-.49549468-1.11141049-.76085722-1.78440129-.72350878h-1.35V16.6248zM50.016816 14.933208c-.09265545-.96853794.3717644-1.90587368 1.19848311-2.41889116.82671869-.51301748 1.87279909-.51301748 2.69951779 0 .8267187.51301748 1.2911385 1.45035322 1.1984831 2.41889116.0944183.96957872-.3695776 1.90873246-1.1970293 2.42285436-.8274518.5141219-1.8749736.5141219-2.70242535 0-.82745174-.5141219-1.29144768-1.45327564-1.19702935-2.42285436zm3.999612 0c0-1.171284-.526188-1.856244-1.449612-1.856244-.926952 0-1.4484.68496-1.4484 1.856256 0 1.180668.521484 1.860348 1.4484 1.860348.923448 0 1.449612-.684384 1.449612-1.86036zM61.887912 17.6373h-1.106244l-1.116792-3.979692h-.084372L58.468392 17.6373h-1.095708l-1.489452-5.403516h1.081644l.967968 4.1232h.079692l1.110936-4.1232h1.023048l1.110936 4.1232h.084372l.963276-4.1232h1.066404zM64.624236 12.233784H65.6508v.858396h.079692c.2771218-.63200647.9246754-1.01861103 1.6125-.9627.5325802-.04004188 1.054471.16426788 1.4183169.55524248.3638459.3909746.5301628.92618603.4519911 1.45451752v3.498h-1.066404v-3.230208c0-.868356-.37734-1.3002-1.166016-1.3002-.361241-.01682506-.7118158.12494708-.9598145.38814814-.2479987.26320106-.3686875.62158107-.3304255.98118386V17.6373h-1.066404v-5.403516zM70.912524 10.1244h1.066404v7.512888h-1.066404zM73.461348 14.933208c-.0925843-.9686013.3719088-1.90596076 1.1986889-2.41898616.82678-.51302539 1.8729142-.51302539 2.6996942 0 .8267801.5130254 1.2912732 1.45038486 1.1986889 2.41898616.0942984.96961343-.3697825 1.90874063-1.1972753 2.42283989-.8274929.51409926-1.8750285.51409926-2.7025214 0-.8274928-.51409926-1.2915737-1.45322646-1.1972753-2.42283989zm3.999612 0c0-1.171284-.526188-1.856244-1.449612-1.856244-.926952 0-1.4484.68496-1.4484 1.856256 0 1.180668.521484 1.860348 1.4484 1.860348.923436 0 1.449612-.684384 1.449612-1.86036zM79.68108 16.109184c0-.97266.724224-1.533396 2.00976-1.613088l1.463676-.084372v-.466404c0-.570708-.37734-.892968-1.106244-.892968-.595308 0-1.007808.218556-1.126176.600588h-1.03242c.108984-.928128.982032-1.523436 2.207808-1.523436 1.354692 0 2.118756.6744 2.118756 1.815816v3.691992h-1.026564v-.759372h-.084372c-.3486617.5545516-.9686956.87865588-1.623048.8484-.4587167.04771418-.9162106-.10084721-1.259381-.40895707-.3431704-.30810985-.5399877-.74701096-.541795-1.20819893zm3.473436-.461724v-.451752l-1.319532.084372c-.744144.0498-1.081644.302928-1.081644.779292 0 .486324.421872.769332 1.002.769332.3434233.03476384.6862517-.07133394.9500045-.29400529.2637528-.22267136.4258454-.54284944.4491715-.88723871zM85.617792 14.933208c0-1.70742.87774-2.789064 2.242968-2.789064.6893721-.03176384 1.335033.33762344 1.657032.948h.079692V10.1244h1.066404v7.512888h-1.021872v-.853716h-.084372c-.346339.60531238-.9999546.96845577-1.696872.942768-1.374612.00006-2.24298-1.081608-2.24298-2.793132zm1.1016 0c0 1.146096.54024 1.835748 1.443756 1.835748.8988 0 1.454292-.6996 1.454292-1.831056 0-1.126176-.561324-1.835748-1.454292-1.835748-.897696 0-1.443792.694332-1.443792 1.831056h.000036zM95.076 14.933208c-.0926554-.96853794.3717644-1.90587368 1.1984831-2.41889116.8267187-.51301748 1.8727991-.51301748 2.6995178 0 .8267187.51301748 1.2911385 1.45035322 1.1984831 2.41889116.0944183.96957872-.3695776 1.90873246-1.1970293 2.42285436-.8274518.5141219-1.8749736.5141219-2.7024254 0-.8274517-.5141219-1.2914476-1.45327564-1.1970293-2.42285436zm3.9996 0c0-1.171284-.526176-1.856244-1.4496-1.856244-.926952 0-1.4484.68496-1.4484 1.856256 0 1.180668.521484 1.860348 1.4484 1.860348.923436 0 1.4496-.684384 1.4496-1.86036zM101.60334 12.233784h1.026564v.858396h.079692c.2771218-.63200647.9246754-1.01861103 1.6125-.9627.5325802-.04004188 1.054471.16426788 1.4183169.55524248.3638459.3909746.5301628.92618603.4519911 1.45451752v3.498H105.126v-3.230208c0-.868356-.37734-1.3002-1.166016-1.3002-.361241-.01682506-.7118158.12494708-.9598145.38814814-.2479987.26320106-.3686875.62158107-.3304255.98118386V17.6373h-1.066404v-5.403516zM112.218192 10.888476v1.36992h1.170708v.898248h-1.170708v2.778516c0 .566016.233208.813864.764064.813864a3.55988449 3.55988449 0 00.406644-.024612v.888276a3.49859996 3.49859996 0 01-.58008.054492c-1.185936 0-1.658208-.417192-1.658208-1.458984v-3.0516h-.857808v-.898248h.857808v-1.369872h1.06758zM114.845532 10.1244h1.057032v2.97774h.084372c.2904333-.63753773.9493202-1.02463495 1.6476-.967968.5295559-.02881526 1.044382.17999246 1.4042511.56954862.3598692.38955617.5272988.91928614.4566849 1.44490338V17.6373H118.428v-3.2256c0-.863088-.402-1.3002-1.155468-1.3002-.3710052-.0304276-.7365251.10444915-.9988412.3685722-.2623161.26412306-.3946805.63056017-.3617068 1.0013478v3.15588h-1.066404l-.000048-7.5129zM125.7135 16.178316c-.2990316 1.01925538-1.2853813 1.67780764-2.341404 1.563276-.7205233.01902024-1.4129863-.27963516-1.8936621-.81672581-.4806758-.53709064-.7009702-1.25831906-.6024339-1.97232619-.0959191-.71599143.1235499-1.43837552.601549-1.98000365.4779991-.54162814 1.1674934-.84920425 1.889855-.84304435 1.503516 0 2.410548 1.0272 2.410548 2.724v.372108h-3.815628v.05976c-.0337656.40096817.1031769.7975773.3771489 1.09228884.2739721.29471154.6595526.46017987 1.0619151.45571116.5217262.06263362 1.029591-.19616035 1.285548-.65508l1.026564.000036zm-3.7512-1.741404h2.729292c.0271835-.36671948-.1017619-.72786591-.3550597-.99444109-.2532978-.26657517-.6073913-.41378744-.9750203-.40535891-.3726096-.00468131-.7313184.14131348-.9947564.40486666-.2634379.26355317-.4092758.62232582-.4044316.99493334h-.000024z"/>
    </g>
  </g>
</svg>
