<svg xmlns="http://www.w3.org/2000/svg" viewBox="0 0 56 56"><path d="M37.3998182 23.7875554c1.0041818 0 1.8181818.8118262 1.8181818 1.8132859v5.5847575c0 6.0086857-4.8841818 10.8797157-10.9090909 10.8797157h-2.4234546l2.7267273 2.4635303c.7441818.6723664.7441818 1.7625139 0 2.4348804-.7441818.6723664-1.9507273.6723664-2.6949091 0l-5.8123636-5.2514575c-.104-.062921-.2023636-.1365404-.2930909-.2210395-.2730909-.254404-.4385455-.5702784-.4970909-.9017471-.12-.5448924.0538182-1.1322158.5210909-1.5547114.1252727-.1378097.2716363-.2563986.4338182-.3506895L25.96 33.5428706c.7576364-.6843341 1.9558182-.6952139 2.6763636-.0242981.7205455.6709158.6905455 1.7697671-.0670909 2.4541012l-2.7294545 2.4660689h2.4690909c4.0165454 0 7.2727273-3.2474138 7.2727273-7.2531438v-5.5847575c0-1.0014597.814-1.8132859 1.8181818-1.8132859zM8.27272727 32.8540032c4.01661823 0 7.27272723 3.2474138 7.27272723 7.2531438s-3.256109 7.2531438-7.27272723 7.2531438C4.25610909 47.3602908 1 44.112877 1 40.107147s3.25610909-7.2531438 7.27272727-7.2531438zm0 3.6265719c-2.00830909 0-3.63636363 1.6236163-3.63636363 3.6265719 0 2.0029557 1.62805454 3.6265719 3.63636363 3.6265719s3.63636363-1.6236162 3.63636363-3.6265719c0-2.0029556-1.62805454-3.6265719-3.63636363-3.6265719zM16.1634727 8.06152657L21.9 13.26253657c.1016364.06217757.1978182.13476341.2867273.21773938.2729091.25465787.4381818.57076801.4972727.90247241.1198182.5461436-.0536364 1.13471808-.5203636 1.55804782-.1223637.13409249-.2645455.2498164-.422.34258411l-5.6194182 5.09486201c-.7558727.6853133-1.9524909.6958848-2.6727273.023609-.7202182-.6722757-.6913273-1.7728134.0645455-2.4581085l2.6574181-2.4093312h-2.2624c-4.01661814 0-7.27272723 3.2473594-7.27272723 7.2531438v5.439876c0 1.0014778-.81403636 1.8132859-1.81818182 1.8132859-1.00416363 0-1.81818181-.8118081-1.81818181-1.8132859v-5.439876c0-6.0086857 4.88416363-10.87971569 10.90909086-10.87971569h2.2183819L13.4727818 10.501029c-.7430182-.67365386-.7430182-1.76585401 0-2.43950243.7430182-.67364842 1.9476727-.67364842 2.6906909 0zM33.7272727 7.468C37.7438182 7.468 41 10.71534127 41 14.72114378c0 4.00580252-3.2561818 7.25314382-7.2727273 7.25314382-4.0165454 0-7.2727272-3.2473413-7.2727272-7.25314382 0-4.00580251 3.2561818-7.25314378 7.2727272-7.25314378zm0 3.62657189c-2.0083636 0-3.6363636 1.62367064-3.6363636 3.62657189 0 2.00290126 1.628 3.62657192 3.6363636 3.62657192 2.0083637 0 3.6363637-1.62367066 3.6363637-3.62657192 0-2.00290125-1.628-3.62657189-3.6363637-3.62657189z" fill="#1E203F" fill-rule="evenodd"/></svg>