<svg xmlns="http://www.w3.org/2000/svg" xmlns:xlink="http://www.w3.org/1999/xlink" viewBox="0 0 56 56"><defs><path id="a" d="M0 0h56v56H0z"/></defs><g fill="none" fill-rule="evenodd"><mask id="b" fill="#fff"><use xlink:href="#a"/></mask><g mask="url(#b)" stroke="#1E203F" stroke-linecap="round" stroke-linejoin="round" stroke-width="2.584"><g transform="translate(7.5 5)"><path d="M1.292 17.442V12.92c0-4.99486328 4.04913672-9.044 9.044-9.044h4.522"/><path d="M10.982 0l3.876 3.876-3.876 3.876M38.76 27.778V32.3c0 4.9948633-4.0491367 9.044-9.044 9.044h-4.522"/><path d="M29.07 45.22l-3.876-3.876 3.876-3.876M14.460064 12.992998c1.2585255-6.36406185 7.0411922-10.80808218 13.5147678-10.38619467 6.4735755.42188752 11.6305394 5.57885133 12.0524269 12.05242687.4218875 6.4735756-4.0221328 12.2562423-10.3861947 13.5147678"/><circle cx="12.92" cy="29.716" r="12.92"/></g></g></g></svg>