<svg xmlns="http://www.w3.org/2000/svg" xmlns:xlink="http://www.w3.org/1999/xlink" viewBox="0 0 56 56"><defs><path id="a" d="M0 0h56v56H0z"/></defs><g fill="none" fill-rule="evenodd"><mask id="b" fill="#fff"><use xlink:href="#a"/></mask><g mask="url(#b)"><path d="M9 34c4.9705627 0 9 4.0294373 9 9s-4.0294373 9-9 9c-4.97056275 0-9-4.0294373-9-9s4.02943725-9 9-9zm37.6077922-8C47.4181818 26 48 26.5824 48 27.3728v3.2448c0 9.2144-6.0675325 12.8128-13.2571429 12.8128h-2.2025974l-4.4467532-.1248 4.3844156 4.0976 2.3896104 2.184c.3532467.2704.4571428.6864.4571428 1.0608 0 .7696-.6025974 1.352-1.3714285 1.352-.3948052 0-.7064936-.1248-1.0181819-.416l-8.4571428-8.5072C24.1662338 42.7856 24 42.432 24 42.0368s.1662338-.7488.4779221-1.04l8.3324675-8.3824c.4155844-.416.748052-.5408 1.1428572-.5408.7688311 0 1.3714285.5824 1.3714285 1.352 0 .3744-.1038961.7696-.4571428 1.0816l-2.3896104 2.184-4.3844156 4.0976 4.4467532-.1248h2.2025974c6.109091 0 10.4727273-2.8704 10.4727273-10.0464v-3.2448c0-.7904.5818182-1.3728 1.3922078-1.3728zM9 37c-3.3137085 0-6 2.6862915-6 6s2.6862915 6 6 6 6-2.6862915 6-6-2.6862915-6-6-6zm5.0467532-33c.3948052 0 .7064936.1248 1.0181819.416l8.4571428 8.5072c.3116883.2912.4779221.6448.4779221 1.04s-.1662338.7488-.4779221 1.04l-8.3324675 8.3824c-.4155844.416-.748052.5408-1.1428572.5408-.7688311 0-1.3714285-.5824-1.3714285-1.352 0-.3744.1038961-.7696.4571428-1.0816l2.3896104-2.184 4.3844156-4.0976-4.4467532.1248h-2.2025974c-6.10909095 0-10.47272732 2.8704-10.47272732 10.0464v3.2448c0 .7904-.58181818 1.3728-1.39220779 1.3728C.58181819 30 0 29.4176 0 28.6272v-3.2448c0-9.2144 6.06753247-12.8128 13.2571429-12.8128h2.2025974l4.4467532.1248-4.3844156-4.0976-2.3896104-2.184c-.3532467-.2704-.4571428-.6864-.4571428-1.0608 0-.7696.6025974-1.352 1.3714285-1.352zM39 4c4.9705627 0 9 4.02943725 9 9 0 4.9705627-4.0294373 9-9 9s-9-4.0294373-9-9c0-4.97056275 4.0294373-9 9-9zm0 3c-3.3137085 0-6 2.6862915-6 6s2.6862915 6 6 6 6-2.6862915 6-6-2.6862915-6-6-6z" fill="#000" fill-rule="nonzero"/></g></g></svg>