<svg xmlns="http://www.w3.org/2000/svg" xmlns:xlink="http://www.w3.org/1999/xlink" viewBox="0 0 128 128"><defs><filter x="-25.7%" y="-25.7%" width="173.6%" height="173.6%" filterUnits="objectBoundingBox" id="a"><feOffset dx="8" dy="8" in="SourceAlpha" result="shadowOffsetOuter1"/><feGaussianBlur stdDeviation="7.5" in="shadowOffsetOuter1" result="shadowBlurOuter1"/><feColorMatrix values="0 0 0 0 0 0 0 0 0 0 0 0 0 0 0 0 0 0 0.25 0" in="shadowBlurOuter1"/></filter><rect id="b" x="0" y="0" width="72" height="72" rx="16"/></defs><g fill="none" fill-rule="evenodd"><g transform="translate(28 28)"><use fill="#000" filter="url(#a)" xlink:href="#b"/><use fill="#4B4C65" xlink:href="#b"/></g><path d="M80.6615103 57.6676747c.8009398 0 1.2014098-.407142 1.2014098-1.2214259v-4.9826422c0-1.8612204-.4779803-3.2668296-1.4339408-4.2168275-.9559605-.949998-2.3834421-1.4249969-4.2824447-1.4249969h-4.96066c-.8138583 0-1.2207875.3942168-1.2207875 1.1826505 0 .3877542.1065767.6850325.3197301.8918348.2131533.2068022.5135058.3102034.9010574.3102034h4.9025272c1.072226 0 1.9054619.2843531 2.4997076.8530593.5942457.5687063.8913686 1.4153031.8913686 2.5397904v4.8469282c0 .8142839.3940107 1.2214259 1.1820323 1.2214259zm-34.6858649 0c.40047 0 .7008224-.1066324.9010574-.3198972.200235-.2132649.3003525-.5137744.3003525-.9015287v-4.8469282c0-1.1244873.287434-1.9710841.8623022-2.5397904.5748681-.5687062 1.4113336-.8530593 2.5093964-.8530593h4.9219048c.8138583 0 1.2207874-.4006794 1.2207874-1.2020382 0-.7884337-.4069291-1.1826505-1.2207874-1.1826505h-4.9800376c-1.8860842 0-3.3071066.4717677-4.2630672 1.415303-.9559605.9435354-1.4339407 2.3523758-1.4339407 4.2265214v4.9826422c0 .8142839.3940107 1.2214259 1.1820322 1.2214259zm15.9477468 9.6744687c.904287 0 1.5889614-.2326525 2.0540233-.6979576.4650619-.4653052.6975928-1.1503377.6975928-2.0550976v-6.0295787c0-.3102034-.0904287-.5525498-.2712861-.7270392-.1808574-.1744894-.4263067-.2617341-.736348-.2617341-.2971228 0-.5361129.0872447-.7169703.2617341-.1808574.1744894-.2712861.4168358-.2712861.7270392v6.2040681c0 .180952-.0549032.316666-.1647095.407142-.1098062.090476-.2357605.135714-.3778627.135714h-.6588377c-.2842045 0-.519965.0937073-.7072816.2811218-.1873166.1874146-.2809749.4232984-.2809749.7076515 0 .3231286.1098063.5784001.3294189.7658147.2196125.1874145.5296538.2811218.9301237.2811218h.1743982zm-5.7938958-4.5367248c.3746331 0 .6846744-.1163263.9301237-.3489788.2454493-.2326526.368174-.5493185.368174-.9499979v-2.6173413c0-.3877542-.1227247-.7011889-.368174-.940304-.2454493-.2391152-.5554906-.3586727-.9301237-.3586727-.3746332 0-.6814449.1195575-.920435.3586727-.2389901.2391151-.3584852.5525498-.3584852.940304v2.6173413c0 .4006794.1194951.7173453.3584852.9499979.2389901.2326525.5458018.3489788.920435.3489788zm14.281275 0c.3746332 0 .6814449-.1163263.920435-.3489788.2389901-.2326526.3584852-.5493185.3584852-.9499979v-2.6173413c0-.3877542-.1194951-.7011889-.3584852-.940304-.2389901-.2391152-.5458018-.3586727-.920435-.3586727-.3875515 0-.6975928.1195575-.9301237.3586727-.232531.2391151-.3487964.5525498-.3487964.940304v2.6173413c0 .4006794.1162654.7173453.3487964.9499979.2325309.2326525.5425722.3489788.9301237.3489788zm-7.2278366 10.7989561c1.1238995 0 2.2251919-.2294213 3.3038771-.6882638 1.0786851-.4588426 2.0314161-1.0954058 2.8581927-1.9096898.0904287-.0904759.1614799-.1971084.2131534-.3198972.0516735-.1227889.0775103-.2681967.0775103-.4362236 0-.2972782-.0968879-.5363933-.2906637-.7173453-.1937757-.180952-.4263067-.271428-.6975928-.271428-.2842045 0-.5619497.1421766-.8332358.4265297-.5554906.5687062-1.2433946 1.03078-2.0637121 1.3862214-.8203175.3554414-1.6761605.5331621-2.5675291.5331621-.8396951 0-1.6729309-.1744894-2.4997076-.5234682-.8267766-.3489788-1.5243695-.8142839-2.0927784-1.3959153-.1421023-.1292514-.2745157-.2326526-.3972404-.3102034-.1227246-.0775509-.2745157-.1163263-.4553731-.1163263-.2842044 0-.5231946.090476-.7169703.271428-.1937758.180952-.2906637.4200671-.2906637.7173453 0 .1421766.0290663.2746593.0871991.3974482.0581327.1227888.1388726.2358838.2422197.3392849.7621847.8530594 1.6923085 1.5025478 2.7903713 1.9484652 1.0980627.4459174 2.2090439.6688761 3.3329434.6688761zm-7.7122761 9.2867144c.8138583 0 1.2207874-.3942168 1.2207874-1.1826505 0-.3877542-.1065767-.6850325-.31973-.8918348-.2131534-.2068022-.5135058-.3102034-.9010574-.3102034h-4.9219048c-1.0980628 0-1.9345283-.2843531-2.5093964-.8530593-.5748682-.5687063-.8623022-1.4153031-.8623022-2.5397904v-4.8469282c0-.814284-.40047-1.2214259-1.2014099-1.2214259-.7880215 0-1.1820322.4071419-1.1820322 1.2214259v4.9632545c0 1.8741455.4779802 3.2862173 1.4339407 4.2362152.9559606.9499979 2.376983 1.4249969 4.2630672 1.4249969h4.9800376zm20.6758759 0c1.8990026 0 3.3264842-.474999 4.2824447-1.4249969.9559605-.9499979 1.4339408-2.3620697 1.4339408-4.2362152v-4.9632545c0-.814284-.40047-1.2214259-1.2014098-1.2214259-.3875516 0-.6814449.1034011-.8816799.3102034-.2002349.2068022-.3003524.5105431-.3003524.9112225v4.8469282c0 1.1244873-.2971229 1.9710841-.8913686 2.5397904-.5942457.5687062-1.4274816.8530593-2.4997076.8530593h-4.9025272c-.8138583 0-1.2207875.4006794-1.2207875 1.2020382 0 .7884337.4069292 1.1826505 1.2207875 1.1826505h4.96066z" fill="#FFD8EF" fill-rule="nonzero"/></g></svg>