<svg xmlns="http://www.w3.org/2000/svg" xmlns:xlink="http://www.w3.org/1999/xlink" viewBox="0 0 128 128"><defs><filter x="-25.7%" y="-26.1%" width="173.6%" height="174.6%" filterUnits="objectBoundingBox" id="a"><feOffset dx="8" dy="8" in="SourceAlpha" result="shadowOffsetOuter1"/><feGaussianBlur stdDeviation="7.5" in="shadowOffsetOuter1" result="shadowBlurOuter1"/><feColorMatrix values="0 0 0 0 0 0 0 0 0 0 0 0 0 0 0 0 0 0 0.25 0" in="shadowBlurOuter1"/></filter><rect id="b" x="0" y="0" width="72" height="71" rx="16"/><path d="M20.288812 40.0693069c.3396327 0 .6045463-.107173.7947406-.321519.1901944-.214346.2852916-.4956751.2852916-.8439874v-5.1041143l4.116349 2.3511078c.2988768.1473628.5875647.2042985.8660635.1708069.2784989-.0334915.4992602-.1976002.6622839-.4923259.1358531-.2411393.1630237-.492326.0815119-.7535602-.0815119-.2612342-.2717062-.4789294-.5705831-.6530855l-5.1556252-2.8735762v-3.1549053l-.3260475-6.9528487 6.0522558 3.6974687 2.7714033 1.5674052-.0407559 5.8275321c0 .3617089.0950971.6463872.2852915.8540349.1901943.2076476.4279373.3114715.7132288.3114715.3260474 0 .5739793-.107173.7437957-.321519.1698164-.214346.2547246-.4956752.2547246-.8439874l.020378-4.7022156 4.4831524 2.5721521c.3124621.1741561.6079426.2277427.8864415.1607595.2784989-.0669831.4924675-.2344409.6419059-.5023734.1630237-.2947258.2037797-.5794041.1222678-.8540349-.0815119-.2746308-.2717062-.492326-.570583-.6530855l-4.5035304-2.5520572 4.157105-2.3912976c.2852915-.1741562.4788821-.385153.580772-.6329906.1018898-.2478375.0713229-.5057226-.0917009-.7736551-.1630237-.2545359-.3803887-.4119462-.6520949-.472231-.2717062-.0602849-.550205-.0033492-.8354966.1708069l-5.1556253 2.953956-2.7510253-1.5674052-6.3986812-3.25538 6.4190592-3.2352851 2.7510253-1.5875001 5.0944914 2.9539559c.2988768.1741561.5943573.2310918.8864415.170807.2920842-.0602848.5128455-.2109969.6622839-.4521361.1494384-.2813292.1732127-.5459125.0713229-.7937501-.1018899-.2478376-.2954805-.4655327-.580772-.6530855l-4.1367271-2.3511078 4.5035304-2.5520571c.2988769-.1741562.4890712-.3952005.5705831-.663133.0815118-.2679325.0407559-.5559599-.1222678-.8640823-.1630237-.26793255-.383785-.43539037-.6622839-.50237349-.2784989-.06698313-.5671867-.00669832-.8660635.18085444l-4.5035304 2.55205715-.040756-4.74240542c0-.33491564-.0849082-.60619731-.2547245-.813845-.1698164-.2076477-.4177483-.30477323-.7437958-.29137661-.2852915 0-.5196381.10047469-.7030398.30142408-.1834017.20094938-.2751025.46888189-.2751025.80379753v5.88781692l-2.7306474 1.5473102-6.0522558 3.7376586.3260475-6.9930386V8.52025383l5.1556252-2.87357617c.2988769-.17415614.4890712-.3918513.5705831-.6530855.0815118-.2612342.0543412-.51911924-.0815119-.77365512-.1630237-.28132914-.383785-.44208864-.6622839-.48227852-.2784988-.04018988-.5671867.02009494-.8660635.18085444l-4.116349 2.35110778V1.16550642c0-.34831226-.0950972-.6296414-.2852916-.8439874C20.8933583.107173 20.6284447 0 20.288812 0c-.3260475 0-.5841684.107173-.7743627.32151901-.1901944.21434601-.2852915.49567515-.2852915.84398741v5.10411432l-4.1978609-2.35110778c-.2988769-.1607595-.5773757-.22104432-.8354966-.18085444-.2581209.04018988-.4754859.20094938-.6520949.48227852-.1358531.25453588-.1596274.50907177-.0713229.76360765.0883045.25453589.2818952.4688819.580772.64303803l5.1760033 2.91376605v3.13481033l.3056695 6.9930386-6.0522558-3.7376586-2.7510254-1.5473102.020378-5.88781692c.0135853-.33491564-.0713229-.60284815-.2547246-.80379753-.1834017-.20094939-.4245409-.30142408-.72341776-.30142408-.33963276 0-.590961.10382385-.75398473.31147155-.16302372.20764769-.24453558.47223105-.24453558.79375006l-.02037797 4.74240542-4.50353039-2.55205715c-.29887683-.17415613-.590961-.23109179-.87625252-.17080697-.28529152.06028481-.50944914.22439347-.67247286.49232602-.16302373.3081224-.20377966.599499-.1222678.8741298.08151186.2746308.27170621.492326.57058304.6530855l4.50353039 2.5520571-4.11634905 2.3511078c-.29887682.1875528-.49926015.4018988-.60114998.643038-.10188983.2411393-.07811554.5090718.07132288.8037976.14943841.2545359.36680338.408597.6520949.4621835.28529152.0535866.58416834-.0066983.89663048-.1808544l5.0944914-2.933861 2.75102535 1.5674052 6.3986812 3.2352851-6.3783032 3.25538-2.77140335 1.5674052-5.13524733-2.953956c-.29887683-.1741561-.58077202-.2344409-.84568557-.1808544-.26491355.0535865-.47208954.2009494-.62152795.4420886-.16302372.3081224-.196987.5827532-.10188983.8238925.09509717.2411393.28529152.4487869.57058304.6229431l4.15710498 2.3912976-4.5035304 2.5520572c-.29887683.1741561-.4924675.3985496-.58077202.6731804-.08830451.2746309-.05094491.5459125.11207882.813845.17660903.2947258.40416298.4688819.68266184.5224684.27849886.0535865.56718671 0 .86606354-.1607595l4.50353039-2.5520571v4.6821206c0 .3483122.08490819.6296414.25472457.8439874.16981638.214346.4177483.321519.74379575.321519.28529152 0 .52643082-.1038239.72341782-.3114715.196987-.2076477.2886878-.492326.2751025-.8540349l-.020378-5.8275321 2.7510254-1.5473103 6.0522558-3.7175636-.3056695 6.9528487v3.1147154l-5.1760033 2.933861c-.2988768.1607595-.4924675.3717564-.580772.6329906-.0883045.2612342-.0645302.5124209.0713229.7535602.176609.2947257.393974.4588344.6520949.4923259.2581209.0334916.5366197-.0234441.8354966-.1708069l4.1978609-2.3511078v5.1041143c0 .3483123.0950971.6296414.2852915.8439874.1901943.214346.4483152.321519.7743627.321519z" id="c"/></defs><g fill="none" fill-rule="evenodd"><g transform="translate(28 28)"><use fill="#000" filter="url(#a)" xlink:href="#b"/><use fill="#4E41FF" xlink:href="#b"/></g><g transform="translate(43.683168 43.465347)"><use fill="#4948FB" xlink:href="#c"/><use fill-opacity=".9" fill="#FFF" xlink:href="#c"/></g></g></svg>