<svg xmlns="http://www.w3.org/2000/svg" xmlns:xlink="http://www.w3.org/1999/xlink" viewBox="0 0 128 128"><defs><filter x="-25.8%" y="-25.8%" width="173.9%" height="173.9%" filterUnits="objectBoundingBox" id="a"><feOffset dx="8" dy="8" in="SourceAlpha" result="shadowOffsetOuter1"/><feGaussianBlur stdDeviation="7.5" in="shadowOffsetOuter1" result="shadowBlurOuter1"/><feColorMatrix values="0 0 0 0 0 0 0 0 0 0 0 0 0 0 0 0 0 0 0.25 0" in="shadowBlurOuter1"/></filter><rect id="b" x="0" y="0" width="71.6957746" height="71.6957746" rx="16"/></defs><g fill="none" fill-rule="evenodd"><g transform="translate(28 28)"><use fill="#000" filter="url(#a)" xlink:href="#b"/><use fill="#CC338F" xlink:href="#b"/></g><path d="M72.8933566 82.6591549c1.3558519 0 2.3759691-.3492551 3.0603515-1.0477653.6843824-.6985102 1.0265736-1.7980169 1.0265736-3.2985203V64.4396807c0-1.487568-.3421912-2.5773733-1.0265736-3.2694158-.5527704-.5589574-1.324563-.892182-2.3153779-.9996738l-.1059474-.010046.0001611-4.5686602c0-1.7074694-.2550293-3.2176743-.7650878-4.5306148-.5100586-1.3129404-1.2105821-2.415681-2.1015705-3.3082218-.8909884-.8925409-1.9207902-1.5684141-3.0894055-2.0276199-1.1686152-.4592058-2.4114795-.6888087-3.7285928-.6888087s-2.5567493.2296029-3.7189081.6888087c-1.1621588.4592058-2.1919606 1.135079-3.0894055 2.0276199-.8974448.8925408-1.6011965 1.9952814-2.1112551 3.3082218-.5100586 1.3129405-.7650879 2.8231454-.7650879 4.5306148l-.0001116 4.5682629-.1120499.0104433c-.9982359.1074918-1.7711317.4407164-2.3186873.9996738-.677926.6920425-1.0168889 1.7818478-1.0168889 3.2694158v13.8731886c0 1.5005034.3389629 2.6000101 1.0168889 3.2985203.677926.6985102 1.7012713 1.0477653 3.0700361 1.0477653h18.0909386zm-1.7434551-22.5268234h-14.604301v-4.7732833c0-1.694534.3228776-3.1400621.9685214-4.3365842.6456438-1.1965221 1.5204911-2.1149336 2.6245419-2.7552346 1.1040509-.640301 2.3404587-.9604515 3.7092235-.9604515 1.3687648 0 2.6051727.3201505 3.7092235.9604515 1.1040509.640301 1.9788982 1.5587125 2.6245419 2.7552346.6456438 1.1965221.9684657 2.6420502.9684657 4.3365842l-.0002169 4.7732833zm1.7047165 20.2954714H54.8411567c-.5939923 0-1.0330301-.1422891-1.3171133-.4268673-.2840833-.2845783-.4261249-.7955255-.4261249-1.5328418V64.3038593c0-.7373164.1420416-1.2450298.4261249-1.5231403.2840832-.2781106.723121-.4171658 1.3171133-.4171658H72.854618c.5939922 0 1.03303.1390552 1.3171133.4171658.2840832.2781105.4261249.7858239.4261249 1.5231403v14.1642345c0 .7373163-.1420417 1.2482635-.4261249 1.5328418-.2840833.2845782-.7231211.4268673-1.3171133.4268673z" fill="#FFF" fill-rule="nonzero"/></g></svg>
