<svg xmlns="http://www.w3.org/2000/svg" viewBox="0 0 160 25"><g fill="#1E203F" fill-rule="nonzero"><path d="M16.8725081 16.6023954c1.1089481-1.8494239 3.0115339-3.2130778 5.8709189-3.2100446 2.8569217.0030395 4.7583482 1.3653891 5.8672964 3.2132703 1.0551888 1.7584042 1.3762955 3.9057105 1.3762955 5.6690234 0 .7745787-.6488789 1.4024599-1.4490372 1.4024599-.8003032 0-1.4490372-.6278812-1.4490372-1.4024599 0-1.5075042-.2866195-3.0976132-.9843309-4.2602525-.6438072-1.073022-1.640455-1.8153441-3.3643745-1.8171673-1.721601-.0018232-2.7172344.7390964-3.3610416 1.8131002-.6980012 1.1639015-.9844759 2.7566753-.9844759 4.2643196 0 .7745787-.6488788 1.4024599-1.4490371 1.4024599-.8003032 0-1.4490372-.6278812-1.4490372-1.4024599 0-1.7631726.3209618-3.9127229 1.3758608-5.6722491z"/><path d="M3.72111541 8.1102273C6.57625269 3.53736136 11.3244042.27692396 18.6175343.28433041c7.2910681.00745491 12.0381741 3.26681007 14.8933115 7.83581379 2.7981434 4.4779948 3.7213588 10.1065239 3.7213588 14.9116455 0 .8019184-.64111 1.4519617-1.4320079 1.4519617-.790898 0-1.4320078-.6500433-1.4320078-1.4519617 0-4.5068887-.8782505-9.5191908-3.2767204-13.35745129-2.3416193-3.74726606-6.1865604-6.47965451-12.4767982-6.48605765-6.288233-.00641766-10.1321144 2.72489633-12.47369072 6.47522602C3.7422948 13.50531 2.86401573 18.5246106 2.86401573 23.0317897c0 .8019184-.64113856 1.4519617-1.43200786 1.4519617C.6411314 24.4837514 0 23.8337081 0 23.0317897c0-4.8049764.92309232-10.4401846 3.72111541-14.9215624zM64.382532 24.4837514c.3900325 0 .7227073-.1264419.9980243-.3793257.2753171-.2528839.4129756-.574736.4129756-.9655564 0-.367831-.1376585-.6781885-.4129756-.9310723-.275317-.2528838-.6079918-.3793257-.9980243-.3793257H51.1093517L65.7247026 2.55182761c.192722-.25748171.295507-.52497659.3083552-.80248465l.0013765-.05961927c0-.39082045-.14913-.71267258-.4473902-.9655564-.2982601-.25288381-.653878-.37932572-1.0668536-.37932572H49.4121669c-.3900325 0-.7227073.12069455-.9980243.36208365-.2753171.2413891-.4129756.55749387-.4129756.94831431 0 .36783101.1376585.67818842.4129756.93107224.275317.25288381.6079918.37932572.9980243.37932572h12.4649396L47.2440451 22.2422812c-.192722.2574817-.295507.5249765-.3083551.8024846l-.0013766.0596193c0 .3218521.1376585.6322096.4129756.9310722.275317.2988627.6194633.4482941 1.0324389.4482941H64.382532zm12.5853908 0c.3900325 0 .728443-.1379366 1.0152316-.4138099.2867887-.2758733.430183-.6092201.430183-1.0000405V1.758692c0-.41380988-.1376586-.75290409-.4129756-1.01728263-.2753171-.26437853-.6079919-.3965678-.9980244-.3965678-.4129756 0-.7571219.13218927-1.0324389.3965678-.2753171.26437854-.4129756.60347275-.4129756 1.01728263v21.311209c0 .3908204.126187.7241672.3785609 1.0000405.252374.2758733.5965203.4138099 1.032439.4138099zm23.4948292.3448416c1.353642 0 2.655663-.2011576 3.906061-.6034728 1.250398-.4023152 2.391817-.9368196 3.424256-1.6035133.206488-.1379366.372825-.3103574.499012-.5172623.126187-.206905.18928-.4482941.18928-.7241673V13.414337c0-.3908204-.126187-.7241673-.378561-1.0000405-.252374-.2758733-.585048-.4138099-.998024-.4138099h-6.263463c-.390032 0-.716971.1321893-.980817.3965678-.2638455.2643785-.3957683.591978-.3957683.9827985 0 .3908204.1319228.7184199.3957683.9827984.263846.2643786.590785.3965678.980817.3965678h4.714805v6.0966377l-.095856.0490887c-.579138.2913481-1.24765.5397105-2.005534.745087l-.152769.0405022c-.975081.2528838-1.921483.3793257-2.839207.3793257-1.8125039 0-3.4357274-.4253046-4.8696704-1.2759138-1.433943-.8506092-2.5638901-2.0058285-3.3898413-3.4656578s-1.2389268-3.0978267-1.2389268-4.9139923c0-1.8391551.4129756-3.48289987 1.2389268-4.93123446s1.9558983-2.59780648 3.3898413-3.44841568c1.433943-.85060921 3.0571665-1.27591381 4.8696704-1.27591381.917724 0 1.789561.10919983 2.615512.32759949.825951.21839966 1.594545.51151499 2.30578.879346.137659.04597888.269582.09195775.395769.13793663.126187.04597887.25811.06896831.395768.06896831.344146 0 .648142-.13793662.911988-.41380988.263845-.27587325.395768-.6092201.395768-1.00004055 0-.22989438-.051622-.44829404-.154866-.65519898-.103244-.20690494-.269581-.36783101-.499012-.4827782-.89478-.55174651-1.887069-.95980903-2.976866-1.22418757C102.762797.13218927 101.63285 0 100.462752 0c-1.7666177 0-3.4013128.31035741-4.9040851.93107224-1.5027722.62071482-2.8219998 1.49431346-3.9576827 2.62079592-1.1356828 1.12648246-2.0189917 2.44262778-2.6499267 3.94843596-.6309349 1.50580819-.9464024 3.14380568-.9464024 4.91399238 0 1.7471973.3154675 3.3737.9464024 4.8795082.630935 1.5058082 1.5142439 2.8219535 2.6499267 3.9484359 1.1356829 1.1264825 2.4549105 2.0058285 3.9576827 2.638038 1.5027723.6322096 3.1374674.9483144 4.9040851.9483144zm31.255329-.3448416c.390032 0 .722707-.1264419.998024-.3793257.275317-.2528839.412976-.574736.412976-.9655564 0-.3908205-.137659-.71842-.412976-.9827985-.275317-.2643785-.607992-.3965678-.998024-.3965678h-10.427634V1.72420784c0-.36910819-.122788-.68182486-.368364-.93815l-.044611-.04464847c-.275317-.26437853-.607992-.3965678-.998025-.3965678-.412975 0-.757122.13218927-1.032439.3965678-.275317.26437854-.412975.59197803-.412975.98279847V23.069901c0 .3908204.131923.7241672.395768 1.0000405.263846.2758733.590785.4138099.980817.4138099h11.907463zm18.93489.2758732c1.743675 0 3.303805-.4138098 4.68039-1.2414296 1.376586-.8276198 2.472118-1.9426075 3.286598-3.3449632.814479-1.4023557 1.221719-2.988627 1.221719-4.7588137V1.72420784c0-.39082044-.126187-.72416729-.378561-1.00004054-.252374-.27587326-.573577-.41380989-.963609-.41380989-.412976 0-.734179.13793663-.96361.41380989-.229431.27587325-.344146.6092201-.344146 1.00004054V15.4144181c0 1.2644191-.303996 2.3909016-.911988 3.3794474-.607992.9885458-1.405264 1.7644394-2.391817 2.3276806-.986553.5632412-2.064878.8448618-3.234976.8448618-1.147154 0-2.208272-.2816206-3.183353-.8448618-.975081-.5632412-1.749411-1.3391348-2.322988-2.3276806-.573577-.9885458-.860366-2.1150283-.860366-3.3794474V1.72420784c0-.39082044-.143394-.72416729-.430182-1.00004054-.286789-.27587326-.613728-.41380989-.980818-.41380989-.435918 0-.7858.13793663-1.049646.41380989-.263845.27587325-.395768.6092201-.395768 1.00004054V15.4144181c0 1.7701867.401504 3.356458 1.204512 4.7588137.803008 1.4023557 1.898541 2.5173434 3.286597 3.3449632 1.388057.8276198 2.965395 1.2414296 4.732012 1.2414296z"/></g></svg>