<svg xmlns="http://www.w3.org/2000/svg" xmlns:xlink="http://www.w3.org/1999/xlink" viewBox="0 0 162 48">
  <defs>
    <path id="a" d="M.4656 5.2248v.3504l4.95 4.9524.114-.0636 5.8668-3.3336c1.6752-.9516 1.6752-2.5104 0-3.4608L5.5296.336 5.4168.2712.4656 5.2248z"/>
    <path id="c" d="M.522 14.9436c.552.5844 1.464.6564 2.4924.0732L20.5296 5.064 15.4656 0 .522 14.9436z"/>
    <path id="e" d="M.522.6564L15.4656 15.6l5.064-5.064L3.0144.5844C2.532.3096 2.0748.18 1.6692.18 1.2096.18.816.3468.522.6564"/>
  </defs>
  <g fill="none" fill-rule="evenodd">
    <path fill="#0A0B09" d="M156 48H6c-3.3 0-6-2.7-6-6V6c0-3.3 2.7-6 6-6h150c3.3 0 6 2.7 6 6v36c0 3.3-2.7 6-6 6"/>
    <path fill="#000" d="M156 0H6C2.7 0 0 2.7 0 6v36c0 3.3 2.7 6 6 6h150c3.3 0 6-2.7 6-6V6c0-3.3-2.7-6-6-6m0 .96c2.7792 0 5.04 2.2608 5.04 5.04v36c0 2.7792-2.2608 5.04-5.04 5.04H6C3.2208 47.04.96 44.7792.96 42V6C.96 3.2208 3.2208.96 6 .96h150"/>
    <path fill="#FFFFFE" d="M56.9022 12.29184c0 1.0056-.2976 1.806-.894 2.4036-.678.7104-1.56 1.0656-2.6448 1.0656-1.0392 0-1.9236-.36-2.6496-1.0812-.7284-.72-1.0908-1.614-1.0908-2.6796 0-1.0668.3624-1.9596 1.0908-2.6808.726-.72 1.6104-1.08 2.6496-1.08.5148 0 1.0092.1008 1.4772.3012.4692.2016.8448.4692 1.1268.804l-.6336.6336c-.4764-.5688-1.1328-.8544-1.9704-.8544-.7584 0-1.4136.2664-1.9668.7992-.5532.534-.8292 1.2252-.8292 2.0772 0 .8508.276 1.5432.8292 2.076.5532.534 1.2084.7992 1.9668.7992.804 0 1.4736-.2676 2.0112-.804.348-.3492.5496-.834.6024-1.458h-2.6136v-.8652h3.4884c.0336.1884.0504.3684.0504.5436"/>
    <path stroke="#FFFFFE" stroke-width=".2" d="M56.9022 12.29184c0 1.0056-.2976 1.806-.894 2.4036-.678.7104-1.56 1.0656-2.6448 1.0656-1.0392 0-1.9236-.36-2.6496-1.0812-.7284-.72-1.0908-1.614-1.0908-2.6796 0-1.0668.3624-1.9596 1.0908-2.6808.726-.72 1.6104-1.08 2.6496-1.08.5148 0 1.0092.1008 1.4772.3012.4692.2016.8448.4692 1.1268.804l-.6336.6336c-.4764-.5688-1.1328-.8544-1.9704-.8544-.7584 0-1.4136.2664-1.9668.7992-.5532.534-.8292 1.2252-.8292 2.0772 0 .8508.276 1.5432.8292 2.076.5532.534 1.2084.7992 1.9668.7992.804 0 1.4736-.2676 2.0112-.804.348-.3492.5496-.834.6024-1.458h-2.6136v-.8652h3.4884c.0336.1884.0504.3684.0504.5436z"/>
    <path fill="#FFFFFE" d="M62.43336 9.28476h-3.2784v2.2824h2.9556v.8652h-2.9556v2.2824h3.2784v.8856h-4.2036v-7.2h4.2036z"/>
    <path stroke="#FFFFFE" stroke-width=".2" d="M62.43336 9.28476h-3.2784v2.2824h2.9556v.8652h-2.9556v2.2824h3.2784v.8856h-4.2036v-7.2h4.2036z"/>
    <path fill="#FFFFFE" d="M66.33456 15.6h-.9252V9.2844h-2.0112V8.4h4.9476v.8844h-2.0112z"/>
    <path stroke="#FFFFFE" stroke-width=".2" d="M66.33456 15.6h-.9252V9.2844h-2.0112V8.4h4.9476v.8844h-2.0112z"/>
    <path fill="#FFFFFE" d="M71.9256 15.6h.9252V8.4h-.9252z"/>
    <path stroke="#FFFFFE" stroke-width=".2" d="M71.9256 15.6h.9252V8.4h-.9252z"/>
    <path fill="#FFFFFE" d="M76.95408 15.6h-.9252V9.2844h-2.0112V8.4h4.9476v.8844h-2.0112z"/>
    <path stroke="#FFFFFE" stroke-width=".2" d="M76.95408 15.6h-.9252V9.2844h-2.0112V8.4h4.9476v.8844h-2.0112z"/>
    <path fill="#FFFFFE" d="M83.73516 14.06664c.5328.54 1.1844.8088 1.956.8088.7704 0 1.4232-.2688 1.956-.8088.5328-.54.8004-1.2288.8004-2.0664 0-.8376-.2676-1.5276-.8004-2.0664-.5328-.54-1.1856-.81-1.956-.81-.7716 0-1.4232.27-1.956.81-.5316.5388-.7992 1.2288-.7992 2.0664 0 .8376.2676 1.5264.7992 2.0664m4.596.6024c-.708.7284-1.5876 1.092-2.64 1.092-1.0524 0-1.932-.3636-2.6388-1.092-.708-.7272-1.0608-1.6164-1.0608-2.6688s.3528-1.9428 1.0608-2.67c.7068-.7272 1.5864-1.0908 2.6388-1.0908 1.0464 0 1.9236.3648 2.6352 1.0956.7104.7308 1.0656 1.6188 1.0656 2.6652 0 1.0524-.354 1.9416-1.0608 2.6688"/>
    <path stroke="#FFFFFE" stroke-width=".2" d="M83.73516 14.06664c.5328.54 1.1844.8088 1.956.8088.7704 0 1.4232-.2688 1.956-.8088.5328-.54.8004-1.2288.8004-2.0664 0-.8376-.2676-1.5276-.8004-2.0664-.5328-.54-1.1856-.81-1.956-.81-.7716 0-1.4232.27-1.956.81-.5316.5388-.7992 1.2288-.7992 2.0664 0 .8376.2676 1.5264.7992 2.0664zm4.596.6024c-.708.7284-1.5876 1.092-2.64 1.092-1.0524 0-1.932-.3636-2.6388-1.092-.708-.7272-1.0608-1.6164-1.0608-2.6688s.3528-1.9428 1.0608-2.67c.7068-.7272 1.5864-1.0908 2.6388-1.0908 1.0464 0 1.9236.3648 2.6352 1.0956.7104.7308 1.0656 1.6188 1.0656 2.6652 0 1.0524-.354 1.9416-1.0608 2.6688z"/>
    <path fill="#FFFFFE" d="M90.69024 15.6V8.4h1.1256l3.4992 5.6004h.0408l-.0408-1.3872V8.4h.9264v7.2h-.966l-3.66-5.8728h-.0408l.0408 1.3884V15.6z"/>
    <path stroke="#FFFFFE" stroke-width=".2" d="M90.69024 15.6V8.4h1.1256l3.4992 5.6004h.0408l-.0408-1.3872V8.4h.9264v7.2h-.966l-3.66-5.8728h-.0408l.0408 1.3884V15.6z"/>
    <path fill="#FFFFFE" d="M128.3244 36h2.238V20.9988h-2.238V36zm20.1672-9.5976l-2.5668 6.504h-.0768l-2.664-6.504h-2.4108l3.9948 9.09-2.2788 5.0568h2.3352l6.1572-14.1468h-2.49zM135.792 34.296c-.732 0-1.7556-.3672-1.7556-1.2732 0-1.158 1.2744-1.602 2.3748-1.602.9828 0 1.4472.2124 2.0448.5016-.174 1.3896-1.3704 2.3736-2.664 2.3736zm.2712-8.2212c-1.6212 0-3.3.714-3.9948 2.2968l1.9872.8292c.4248-.8292 1.2168-1.1004 2.046-1.1004 1.158 0 2.3352.6948 2.3544 1.9296v.1548c-.4056-.2316-1.2744-.5784-2.3352-.5784-2.1432 0-4.3236 1.1772-4.3236 3.3768 0 2.0076 1.7568 3.3012 3.726 3.3012 1.5036 0 2.3352-.6756 2.8548-1.4676h.078v1.158h2.1624v-5.7504c0-2.664-1.9896-4.1496-4.5552-4.1496zm-13.8384 2.154H119.04v-5.142h3.1848c1.674 0 2.6244 1.386 2.6244 2.5704 0 1.1628-.9504 2.5716-2.6244 2.5716zm-.0576-7.23h-5.3652V36h2.238v-5.6832h3.1272c2.4816 0 4.9212-1.7964 4.9212-4.6596 0-2.862-2.4396-4.6584-4.9212-4.6584zM92.91 34.2996c-1.5468 0-2.8416-1.296-2.8416-3.0744 0-1.7988 1.2948-3.1128 2.8416-3.1128 1.5264 0 2.7252 1.314 2.7252 3.1128 0 1.7784-1.1988 3.0744-2.7252 3.0744zm2.5704-7.0572h-.0768c-.5028-.5988-1.47-1.1412-2.6868-1.1412-2.5524 0-4.8912 2.244-4.8912 5.124 0 2.8608 2.3388 5.0844 4.8912 5.0844 1.2168 0 2.184-.5412 2.6868-1.1592h.0768v.7332c0 1.9536-1.044 2.9964-2.7252 2.9964-1.3728 0-2.2236-.9852-2.5716-1.8168l-1.9524.8124c.5604 1.3524 2.0484 3.0156 4.524 3.0156 2.6292 0 4.8528-1.5468 4.8528-5.316v-9.1644h-2.1276v.8316zM99.1548 36h2.2416V20.9988h-2.2416V36zm5.5476-4.9488c-.0576-1.9728 1.5276-2.9772 2.6688-2.9772.8892 0 1.6428.4452 1.8948 1.0824l-4.5636 1.8948zm6.96-1.7016c-.426-1.14-1.7208-3.2484-4.3692-3.2484-2.6292 0-4.8144 2.07-4.8144 5.1048 0 2.8608 2.166 5.1036 5.0652 5.1036 2.3388 0 3.6924-1.4304 4.254-2.262l-1.74-1.1604c-.5808.8508-1.3728 1.4124-2.514 1.4124-1.14 0-1.9524-.5232-2.4732-1.548l6.8232-2.8224-.2316-.5796zm-54.3696-1.6812v2.1648h5.1816c-.1548 1.218-.5616 2.1072-1.1796 2.7252-.7548.7548-1.9344 1.5864-4.002 1.5864-3.1908 0-5.6844-2.5716-5.6844-5.7612 0-3.1896 2.4936-5.7612 5.6844-5.7612 1.7208 0 2.9772.6768 3.9048 1.5468l1.5276-1.5276c-1.296-1.2372-3.0156-2.1852-5.4324-2.1852-4.3692 0-8.0424 3.558-8.0424 7.9272 0 4.368 3.6732 7.926 8.0424 7.926 2.358 0 4.1364-.774 5.5284-2.2236 1.4304-1.4304 1.8756-3.4404 1.8756-5.0652 0-.5016-.0384-.966-.1164-1.3524h-7.2876zm13.2936 6.6312c-1.5456 0-2.88-1.2768-2.88-3.0936 0-1.8372 1.3344-3.0936 2.88-3.0936 1.5468 0 2.8812 1.2564 2.8812 3.0936 0 1.8168-1.3344 3.0936-2.8812 3.0936zm0-8.1984c-2.8224 0-5.1228 2.1468-5.1228 5.1048 0 2.9388 2.3004 5.1036 5.1228 5.1036 2.8236 0 5.124-2.1648 5.124-5.1036 0-2.958-2.3004-5.1048-5.124-5.1048zm11.1768 8.1984c-1.5468 0-2.8812-1.2768-2.8812-3.0936 0-1.8372 1.3344-3.0936 2.8812-3.0936 1.5468 0 2.88 1.2564 2.88 3.0936 0 1.8168-1.3332 3.0936-2.88 3.0936zm0-8.1984c-2.8224 0-5.1228 2.1468-5.1228 5.1048 0 2.9388 2.3004 5.1036 5.1228 5.1036s5.1228-2.1648 5.1228-5.1036c0-2.958-2.3004-5.1048-5.1228-5.1048z"/>
    <path fill="#34C4EE" d="M12.52212 9.05688c-.3492.3696-.5544.942-.5544 1.6848v26.5164c0 .7428.2052 1.3164.5544 1.6848l.0888.0876 14.8548-14.8548v-.3504l-14.8548-14.8548-.0888.0864z"/>
    <g transform="translate(27 18.6)">
      <mask id="b" fill="#fff">
        <use xlink:href="#a"/>
      </mask>
      <path fill="#FAE027" d="M.4656 5.2248v.3504l4.95 4.9524.114-.0636 5.8668-3.3336c1.6752-.9516 1.6752-2.5104 0-3.4608L5.5296.336 5.4168.2712.4656 5.2248z" mask="url(#b)"/>
    </g>
    <g transform="translate(12 24)">
      <mask id="d" fill="#fff">
        <use xlink:href="#c"/>
      </mask>
      <path fill="#DB335F" d="M.522 14.9436c.552.5844 1.464.6564 2.4924.0732L20.5296 5.064 15.4656 0 .522 14.9436z" mask="url(#d)"/>
    </g>
    <g transform="translate(12 8.4)">
      <mask id="f" fill="#fff">
        <use xlink:href="#e"/>
      </mask>
      <path fill="#60BA74" d="M.522.6564L15.4656 15.6l5.064-5.064L3.0144.5844C2.532.3096 2.0748.18 1.6692.18 1.2096.18.816.3468.522.6564" mask="url(#f)"/>
    </g>
  </g>
</svg>
