<svg xmlns="http://www.w3.org/2000/svg" xmlns:xlink="http://www.w3.org/1999/xlink" viewBox="0 0 56 56"><defs><path id="a" d="M0 0h56v56H0z"/></defs><g fill="none" fill-rule="evenodd"><mask id="b" fill="#fff"><use xlink:href="#a"/></mask><g mask="url(#b)" fill-rule="nonzero"><path d="M33.1161168 16.0729297v-3.87222187c0-1.6097429-.4781074-2.87896326-1.4343222-3.80766109C30.7255798 7.46434891 29.415084 7 27.7503071 7H13.36580967c-1.66477685 0-2.97527267.46434891-3.93148747 1.39304674C8.4781074 9.32174457 8 10.59096493 8 12.20070783V44.2511017c0 1.6235014.4781074 2.8961614 1.4343222 3.81798.9562148.9218186 2.26671062 1.3827279 3.93148747 1.3827279H27.7503071c1.6647769 0 2.9752727-.4609093 3.9314875-1.3827279.9562148-.9218186 1.4343222-2.1944786 1.4343222-3.81798V33.8036018" stroke="#1E203F" stroke-width="2.592075" stroke-linecap="round"/><path d="M25.9135492 45.4893655c.2201358 0 .4058753-.0791113.5572187-.2373339.1513433-.1582226.227015-.354281.227015-.5881753 0-.2338942-.0756717-.4265131-.227015-.5778564-.1513434-.1513434-.3370829-.227015-.5572187-.227015H15.24384305c-.23389427 0-.4299527.0756716-.58817529.227015-.15822259.1513433-.23733389.3439622-.23733389.5778564 0 .2338943.0791113.4299527.23733389.5881753.15822259.1582226.35428102.2373339.58817529.2373339H25.9135492zM25.9135492 9.2613055c.2201358 0 .4058753-.07911129.5572187-.23733389.1513433-.15822259.227015-.35428102.227015-.58817529 0-.23389426-.0756717-.42651307-.227015-.57785642-.1513434-.15134335-.3370829-.22701503-.5572187-.22701503H15.24384305c-.23389427 0-.4299527.07567168-.58817529.22701503s-.23733389.34396216-.23733389.57785642c0 .23389427.0791113.4299527.23733389.58817529.15822259.1582226.35428102.23733389.58817529.23733389H25.9135492zM39.0544753 34.5572654c.3184107 0 .6058648-.1238264.8623623-.3714792l8.8226294-8.7960951c.1326711-.1326711.2321744-.274187.29851-.4245476.0663355-.1503606.0995033-.3051435.0995033-.4643489 0-.1680501-.0331678-.3272554-.0995033-.477616-.0663356-.1503606-.1658389-.2874541-.29851-.4112805l-8.7960952-8.76956089c-.1415158-.14151586-.2852429-.24323039-.4311811-.30514357-.1459382-.06191319-.29851-.09286979-.4577154-.09286979-.3272554 0-.6014424.10834808-.8225609.32504424-.2211185.21669616-.3316778.48867195-.3316778.81592738 0 .15920534.0265342.31177713.0796027.45771536.0530684.14593823.1326711.27197579.238808.37811268l2.971833 3.02490149 4.466842 4.0731449-3.2064663-.1991482H25.6679595c-.3449449 0-.6257654.1105592-.8424616.3316778-.2166962.2211185-.3250442.5041502-.3250442.8490951s.108348.6279766.3250442.8490952c.2166962.2211185.4975167.3316778.8424616.3316778H42.450856l3.2200518-.2000445-4.4804275 4.0740411-2.971833 3.0249015c-.1061369.1061369-.1857396.2321745-.238808.3781127-.0530685.1459382-.0796027.29851-.0796027.4577154 0 .3272554.1105593.5992312.3316778.8159273.2211185.2166962.4953055.3250443.8225609.3250443z" fill="#1E203F"/></g></g></svg>