<svg viewBox="0 0 890 205" xmlns="http://www.w3.org/2000/svg"><g fill="none"><path d="m36.0409141 166.552029c-6.1167894 7.431598-11.9816273 16.647445-12.0409141 23.535955-.0224272 2.591837.7773797 4.854491 2.6958019 6.568293 2.7609433 2.468233 5.8029333 3.338583 8.8300663 3.343723 4.4236997.006388 8.8164472-1.839984 12.2558644-3.263669 5.7924096-2.396505 69.8221514-31.162885 69.8221514-31.162885.617808-.320217.502046-.719208-.271142-.520033-.311999.080695-69.7063898 19.536444-69.7063898 19.536444-1.3396147.388743-2.7077054.59048-4.0386534.598165-5.3330777.032663-10.0786812-3.029893-10.0403003-9.483548.0148571-2.525232.7620451-5.570497 2.4935156-9.152445zm392.9590859-7.552029h102v46h-102z" fill="#fff"/><path d="m517 166h5.9529412v27.1501832h5.0470588v6.8498168h-11zm-84 34v-34h7.6322188l2.7082067 14.25 3.0775076-14.25h7.3860183v30.625l4.8009118-30.625h7.5091186l4.6778115 30.625v-30.5h9.9711246s3.4468085.625 5.1702128 5.5l-.7386018-5.625h6.0319149l2.831307 17.625 2.9544073-17.5h16.9878419v6.375h-5.0471125v7h4.8009119v7.125h-4.6778116v6.5h4.9240122v6.875h-10.9559271v-32.75l-5.6626139 32.75h-6.7705168l-3.5699088-21.75s-.6155015 6-3.9392097 8.75l4.3085106 13h-5.9088145l-4.1854104-11.375v11.375h-11.9407295l-.6155015-3.25h-4.5547112l-.9848025 3.25h-11.3252279v-12.5l-2.9544073 12.5h-3.0775076l-2.7082067-12.375v12.25zm31.1443769-9.875-1.7234043-10.375-1.4772036 10.375zm13.0486322-7.875c4.06231-.25 3.6930091-5.375 3.6930091-5.375-.6155015-5-3.6930091-4.75-3.6930091-4.75z" fill="#000" fill-opacity=".88"/><g fill="#fff"><path d="m840.1081081 188.9711538c0 3.3533654-4.1621622 3.1545481-4.1621622 3.1545481h-4.1621621v-6.0607981h4.1621621c4.2861352-.0247403 4.1621622 2.90625 4.1621622 2.90625zm-8.3243243-12.1466346h3.1712703c3.2949459.174077 3.1709729 2.6329135 3.1709729 2.6329135 0 3.0552885-3.6418919 3.1050673-3.6418919 3.1050673h-2.7003513zm7.5564054 6.9302885s2.849-1.2170481 2.8243243-4.4464135c0 0 .4331622-5.2905673-6.5592703-5.9365h-7.7606486v22.1816939h8.8942432s7.4324325.0250369 7.4324325-6.2596169c0 0 .1733243-4.2723366-4.8310811-5.5391635zm-20.080946-14.72965h32.6664325v30.8640769h-32.6664325zm-17.1511351 19.9459961c0 3.3533654-4.1621622 3.1545481-4.1621622 3.1545481h-4.1621621v-6.0607981h4.1621621c4.2861352-.0247403 4.1621622 2.90625 4.1621622 2.90625zm-8.3243243-12.1466346h3.1712703c3.2949459.174077 3.1709729 2.6329135 3.1709729 2.6329135 0 3.0552885-3.6418919 3.1050673-3.6418919 3.1050673h-2.7003513zm7.5564054 6.9302885s2.849-1.2170481 2.8243243-4.4464135c0 0 .4331622-5.2905673-6.5592703-5.9365h-7.76064861v22.1816939h8.89424321s7.4324325.0250369 7.4324325-6.2596169c0 0 .1733243-4.2723366-4.8310811-5.5391635zm-20.08094596-14.72965h32.66643246v30.8640769h-32.66643246zm101.90291876 5.9363808v4.0985577s-3.9888377-2.4591347-8.3986485-2.5089135c0 0-8.225027-.1609615-8.5966486 7.9055961 0 0-.2972973 7.420625 8.4976486 7.843 0 0 3.6915406.4471154 8.6959465-2.7572115v4.2475962s-6.7138654 3.999-14.4932438.9189711c0 0-6.5405405-2.3965385-6.7884865-10.2523558 0 0-.2726216-8.079375 8.4482973-10.7620673 0 0 2.3290271-.8942307 6.5158649-.4968942 0 0 2.502054.2485962 6.1192701 1.7637212zm-26.0019188 24.9272788h32.6664328v-30.8640769h-32.6664328zm-235.4290792-25.4728173h4.041096v25.168h-4.041096zm-7.375 3.016c-2.32363-2.08-5.657534-3.016-10.102739-3.016h-5.253425v25.168h5.152397c4.546233 0 7.981165-1.04 10.304795-3.224 2.626712-2.496 4.041096-5.512 4.041096-9.36 0-3.952-1.414384-7.176-4.142124-9.568zm-2.626712 15.912c-1.515411 1.456-4.041096 2.288-7.476027 2.288h-1.111302v-17.264h1.111302c3.434931 0 5.859589.728 7.375 2.08 1.818493 1.664 2.727739 3.848 2.727739 6.552 0 2.6-.909246 4.68-2.626712 6.344zm101.532534-15.496c-2.525685-2.6-5.455479-3.848-8.991438-3.848s-6.566781 1.248-8.991438 3.848c-2.525685 2.496-3.738014 5.616-3.738014 9.152 0 7.28 5.657534 13 12.729452 13s12.729452-5.72 12.729452-13c0-3.536-1.313356-6.656-3.738014-9.152zm-2.929794 15.496c-1.717466 1.768-3.738014 2.6-6.162671 2.6-4.849316 0-8.688357-4.056-8.688357-9.048 0-2.496.909247-4.68 2.525685-6.448 1.616439-1.768 3.738014-2.6 6.061644-2.6 2.525685.104 4.546233 1.04 6.263699 2.808 1.717466 1.664 2.525685 3.848 2.525685 6.344s-.808219 4.68-2.525685 6.344zm-33.743151 6.24h13.335616v-3.952h-9.29452v-7.8h8.486301v-3.952h-8.587328v-5.512h9.395547v-3.952h-13.335616zm-2.828767-13.416h-10.910959v3.952h6.768836c-.202055 1.56-1.010274 2.912-2.323631 4.056-1.51541 1.248-3.232876 1.872-5.051369 1.872-2.222603 0-4.142124-.936-5.960617-2.808-1.616438-1.664-2.525685-3.744-2.525685-6.136 0-2.496.808219-4.68 2.626713-6.552 1.616438-1.768 3.636986-2.6 6.061643-2.6 2.929795 0 5.253425 1.456 7.273973 4.16l3.030822-2.704c-2.626712-3.64-6.162671-5.408-10.304794-5.408-7.071918 0-12.729453 5.824-12.729453 13.104 0 7.072 5.657535 12.896 12.527398 12.896 1.717465 0 3.434931-.416 5.051369-1.144 1.616439-.728 2.929795-1.768 4.041096-3.12 1.010274-1.248 1.717466-2.6 2.121576-4.16.303082-1.248.505137-2.808.404109-4.68zm-35.763699-11.856-10.708904 25.272h4.445206l2.32363-5.616c0-.104.101027-.312.101027-.312.101028 0 .202055.104.40411.208 1.313356.52 2.929794.832 4.445205.832s3.030822-.312 3.940069-.624c.505137-.104.606164-.208.707192-.312 0 0 .101027.208.101027.312l2.222603 5.512h4.546233l-10.50685-25.272zm4.243151 15.912-.40411.104c-.808219.208-1.818493.416-2.828767.416s-1.91952-.104-2.828767-.416c-.202055-.104-.404109-.208-.505137-.208.101028-.208.202055-.416.202055-.52l3.131849-7.696 3.030822 7.8c.101028.104.202055.312.202055.52z"/><path d="m343 199.9425287v-7.183908c0-4.4827586-2.248679-5.6896552-8.817189-5.6896552h-12.841141v12.8735632h8.10708v-8.6781609h2.189503c2.426206 0 3.254667 1.3793104 3.254667 2.8735632v5.862069h8.10708zm-23.1969-8.5632184v-.5172413c0-2.1264368-1.242691-3.7356322-6.923565-3.7356322h-8.343783c-5.266643 0-7.456147 1.7241379-7.456147 5.5172414v2.2413793c0 3.2183908 2.189504 5.0574712 6.864389 5.0574712h14.853118v-3.7356321h-12.012681c-1.183515 0-1.597746-.3448276-1.597746-1.2068966v-.1149425h9.290596c3.313843-.0574713 5.325819-1.0919541 5.325819-3.5057472zm-7.69285.2873564c0 .5747126-.236703.9195402-1.183515.9195402h-5.74005v-.5172414c0-.7471264.295879-1.2068965 1.242692-1.2068965h4.438182c.710109 0 1.242691.229885 1.242691.8045977zm-20.948221-.6896552h5.089116v-3.908046h-10.414935c-1.656922 0-2.722085.862069-2.722085 2.2988506v10.5747126h8.10708v-8.9655172zm-9.882353 3.9655172v-2.8160919c0-3.2183908-2.189503-5.0574713-6.8643889-5.0574713h-14.4980627v3.7356322h11.6576259c1.1835153 0 1.5977457.3448276 1.5977457 1.2643678v.1149425h-9.2905953c-3.9056006 0-5.2666432 1.6091954-5.2666432 3.678161v.4022988c0 .9195402.2958789 1.7241379.8876365 2.2413793 1.1243396 1.0344828 3.3138429 1.3793104 6.2726312 1.3793104h8.0479042c5.2666436.0574712 7.4561466-1.0919541 7.4561466-4.9425288zm-8.10708 0c0 .7471265-.2958788 1.2068966-1.2426911 1.2068966h-4.3790067c-.769285 0-1.2426911-.2298851-1.2426911-.8045977 0-.5747127.2958788-.9195402 1.2426911-.9195402h5.6216978zm-15.7407538 5v-3.9080459h-6.2726312v-10.9770115h-8.10708v14.9425287h14.3797112zm-29.2328285 0h13.0778443v-3.8505747h-10.7108136c-1.005988 0-2.0711518-.5747126-2.0711518-2.4712643v-.2873564c0-1.6666666.8876365-2.3563218 2.011976-2.3563218h10.7699894v-3.908046h-13.3737231c-5.4441705 0-7.6336738 2.2988506-7.6336738 5.862069v1.2068965c0 4.1379311 2.3670306 5.8045977 7.9295526 5.8045977zm-17.693554 0h8.1070799v-14.9425287h-4.7340613c-1.9528002 0-3.3138429.8045977-4.6748855 1.8965517-1.4793941 1.2643678-6.8643889 5.8045977-6.8643889 5.8045977v-7.6436781h-4.793237c-2.7220853 0-4.0831279.9195402-5.562522 2.0689655-1.0651638.7471264-16.9834449 12.8160919-16.9834449 12.8160919h9.64564988l9.52729832-7.6436781v7.6436781h7.7520254l8.5804861-7.5287356z"/><path d="m358.786174 174c-4.150148 0-10.078932 1.16991643-16.482019 3.34261838-5.335905 1.83844012-10.612523 4.17827298-16.304155 7.52089132 3.320119-1.281337 9.901069-2.72980496 15.35555-2.72980496 7.292404 0 12.569022 2.61838436 4.861603 11.86629526 22.707241-13.9275766 22.055075-20 12.569021-20"/><path d="m489.4866767 7.73906576c-.2872304.27446559-1.2977276 1.67318443-1.2977276 3.40601233 0 .41486529.0080748 10.34840811 0 10.70415781-.0161495.755836-.5202445 1.8331134-.9355173 2.2126148-.2935748.2686596-2.0936671 1.7660805-2.2534318 1.9233704l1.020879.0147789c.3316415-.290828 3.7997462-3.1035724 4.1625332-3.4820182.471796-.4908711 1.5959164-1.7344113 1.5959164-3.6868117 0-.4597299.0057677-9.87073249.0057677-10.2861256 0-1.54334109.7855578-2.39946258 1.1910255-2.81274441.4146961-.42436602 1.7816357-1.46733524 2.0238782-1.70274226l-1.0710578-.02955783c-.258392.23699047-4.085823 3.39809506-4.4422655 3.73906576m-7.4866767 39.78714234 4.0552208 3.4737919h2.7150481c2.7613178 0 5.2852274-1.1584707 6.9498399-2.7911313 1.6668158-1.6342809 2.2798912-3.8280842 2.2798912-5.8809267v-5.6940591c0-1.913502-1.2255999-3.026066-1.5660137-3.3598351-.1856302-.1820069-1.3671636-1.2740478-1.3671636-1.2740478v4.3687038s1.3016147 1.3177942 1.5583021 1.5845935c1.202465 1.2535248 1.1897958 3.5342809-2.6186525 7.1744173-.6670569.6372939-2.5696286 2.3984935-5.1877303 2.3984935z"/><path d="m493.1980183 24.6256888c-.4538126.4733803-.8877503 1.6317442-.8877503 2.6521297v2.1771133h2.2348341c.8678752 0 2.0156568-.7815138 2.2635423-1.1949036.0154583-.0305407 0-2.1596615 0-2.1596615s.5736148.8120546 1.1936045 1.2407146c.2329793-.2906817 2.267959-2.7284814 3.9716887-2.7421156 2.8448863-.0223602 2.201709 3.5230841 1.0390212 4.6569064-.376521.3653973-2.0565111 1.8875224-2.5760216 2.3756277-1.3432192 1.2636201-3.6437511.6588058-3.6437511-2.6057734 0 0-2.4672612 2.3145463-2.8377092 2.6210437-.3721043.3064974-1.6452089 1.6393794-1.6452089 1.6393794v5.7356465c0 2.7508415-.9164586 3.6741513-1.6761255 4.5014762-.2953646.3212224-3.4311989 3.1467795-3.8496782 3.4538223l-1.0252191.0229055s1.8351256-1.6486507 2.2033653-2.0255007c.4184793-.4292055.9054169-1.3007052.9054169-2.7519323 0-.3670334-.046375-9.0138599-.046375-9.0138599h-14.2647335c-4.9615744 0-6.0221268-5.4389657-6.0530434-6.8940103-.0077292-.4286601 0-4.7730701 0-5.4471463 0-.8938599-.5791356-2.4023507-1.5038755-2.8675505h1.3995317c.1606563.066535 1.0401253.4172073 1.0401253 3.7521392 0 0-.059625 3.8808462-.059625 4.0875411 0 1.6906441 1.3608858 3.6305219 3.3274072 3.6305219.4035731 0 16.1451299-.0152704 16.1451299-.0152704.0154583-.4292054.449396-2.0565867 1.2250733-2.9160884.4400105-.4848331 3.9032303-3.6147061 4.2985221-3.9157498l1.0252191-.0114528c-.1545834.1401599-1.8290527 1.6241091-2.2033653 2.014048zm5.3005537 3.2667607s.9346774 1.2254442 1.3802087 1.5777527c1.738511 1.378693 2.5638758-.1014387 1.3973234-1.6851904-.4615418-.6244476-2.2502924-.4439305-2.7775321.1074377z"/><path d="m481 38.170087c0 .7366956-2.3487137 2.6926956-2.4861994 2.829913-.1702947-.7930435-.7624205-1.670087-2.5138006-3.4252174l2.5705656-2.5747826c1.7222164 1.7269565 2.4294344 2.0953043 2.4294344 3.170087m4.8257084-30.97260433c.5192114.53926231 1.6363026 2.00033123.9660479 2.69739986-.5926352.61544468-1.5109577 1.59003478-1.5109577 1.59003478-.0461521-.35207135-.9062599-1.1976956-.9062599-1.1976956s.0073424 2.59346535 0 2.91506376c-.0293695 1.17103173-.4547033 1.50514583-.4547033 1.50514583s2.0862859 2.1472544 2.0862859 4.9056001c0 1.3375447.0052445 2.5678899.0052445 2.8328957 0 .565382-.1379319 1.0028864-.5171136 1.4371259-.1882797.2154872-2.1214244 2.2310549-2.4156442 2.5058556-.560119.5234817-1.149083.6110914-1.590675.6110914h-7.1897669c-1.1323005 0-2.2981661-.916365-2.2981661-1.8332742 0-.2296354.0146848-2.7665081.0146848-2.7665081.3686925.4434902.7436785.9609861 1.6499385.9473821.7069666-.0108832 1.4506452-.5876925 1.649414-.7944732.2066357-.2154873 5.4391329-5.8916176 5.4391329-5.8916176s-2.4507828-2.3567559-4.0650582-3.47663664c-.7882574-.54796887-1.8340226.14365817-1.9924083.86358154-.4950864 2.2582629 0 5.644569 0 5.644569s-1.6001152-1.6558781-1.9845414-2.0547472c-.7992709-.8314761-.7699014-2.7110038.1819862-3.69865377.1510433-.15726217 1.6016886-1.8588497 3.4446269-1.8588497h2.8703475c1.9258024 0 4.032542 1.99053637 4.032542 1.99053637s.309429-.35152721.309429-.69162705c0-1.02410864-.0372363-3.78626352-.0372363-3.78626352-1.4485474-1.50296922-1.6462674-3.05436865-.9518876-3.77483616 1.2964551-1.34461873 1.7674166-1.81858187 1.7674166-1.81858187s-.0141603 1.63139092 1.4973218 3.19748267zm-9.0201183 14.98888023c-.7090645.769986-.8323116.9626186-1.4946995 1.3750917h8.0970758c2.1948482 0 1.7585008-1.4131829 1.3641099-2.1260322-.8060888-1.4610689-3.3544204-4.1775143-3.3544204-4.1775143s-4.4646937 4.765751-4.6120658 4.9284548z"/><path d="m467.3576115 29h-1.3576115s1.4588298.8133382 1.4588298 2.9108373v6.6991663c0 4.3591881 3.5415719 8.3899964 7.8457625 8.3899964h3.594591c2.1587897 0 2.916053-.5300834 4.2206453-1.7060529.4782434-.4316782 1.1000134-1.1395433 1.3270853-1.3972454.7524434-.8546575 1.5530861-1.5456687 1.5530861-3.7905038v-2.1926423c0-1.8952519-1.0807337-2.683581-1.6034275-3.214208-.3347168-.339797-1.2542509-1.2314244-1.2542509-1.2314244v4.4907575s.9061454.9797028 1.3045923 1.2982965c1.8674521 1.4961942.381845 4.0938746-1.3495782 4.0938746-.3459634 0-7.4130406.0021747-7.8944973.0152229-2.9064132.0728524-6.835721-2.5590794-6.835721-6.9851396v-3.6404494c0-3.7404857-1.0095059-3.7404857-1.0095059-3.7404857"/><path d="m476 38.1708547c0 .7340231-2.3492345 2.6914181-2.4861994 2.8291453-.1682116-.7934962-.7624205-1.6699417-2.5138006-3.4249196l2.5700448-2.5750804c1.7242995 1.7273281 2.4299552 2.0935571 2.4299552 3.1708547m-29.2252259 28.8576123c-.4168271 0-3.63323951-.0053487-4.09309731-.0053487-1.29091987 0-1.19241594-1.1061124-1.30543623-2.0512287v-6.0590141s.89586728-.0224645 1.91097615-.0224645c1.13435047 0 2.54658569-.1727632 3.92045619.6290078 0 0-.9881499-2.4577304-3.92771438-2.4577304h-1.90371796v-1.9421151s0-1.6912608-.400237-2.1908299c0 0 2.53155088.0090928 2.70419197.0090928 2.34076437.0021394 4.15012587-.0353015 6.03206927 1.2580156 0 0-.3603169-3.1958518-4.88112867-3.1958518h-8.83113613s1.5325137 1.3542923 1.49051992 4.1104805l.04199378 11.0413336c0 2.7711645 1.07524811 2.8481859 1.07524811 2.8481859h8.70359949c1.9726707 0 2.6590875-1.4553829 2.6590875-2.2437821l.0295512-1.0590438s-.6262776 1.3312929-3.2252259 1.3312929m24.7435195-.8268053v-7.497719c0-2.9094618-2.506745-3.6826527-4.3733884-3.6826527-2.471701 0-3.2120066 1.9581618-3.5274031 2.6311339-.5513963-1.8252291-2.4777241-2.6524239-4.0579919-2.6524239-2.9853154 0-3.7425955 2.6955232-3.7425955 2.6955232s-.0706356-2.6025741-2.467868-2.6025741l-2.3490467.0051927s1.3606949.5306924 1.3606949 2.7801639l-.0038329 8.3249138c0 2.7490078 1.1685001 2.7967805 1.1685001 2.7967805h3.8718204c-.0996565-.0477727-1.4860869-1.0390564-1.4860869-2.8201476v-7.3845184c.0481856-.3281777.6324357-1.4440859 2.3025039-1.4440859.9461894 0 1.9865598.9352027 1.9630146 1.9872408l-.003833 6.8610957c0 2.7895108 1.153716 2.7967805 1.153716 2.7967805h3.8866046s-1.4860869-.991803-1.4860869-2.8201476l-.0114988-7.3865955c.1461994-.4117799.657076-1.4150068 2.1239982-1.4150068 1.1690477 0 2.1475434.935722 2.1239982 1.9872408 0 0-.0076659 6.2634175-.003833 6.8449983.0175221 2.8076852 1.153716 2.7822411 1.153716 2.7822411 2.0243417 0 3.8866046.0072697 3.8866046.0072697s-1.4817064-.9715515-1.4817064-2.7947034m7.0835884-.0190186c0 1.8611599 1.398118 2.8173569 1.398118 2.8173569s-1.7332763-.0073192-3.6292558-.0073192c0 0-1.1132592.0167296-1.1132592-2.7880802v-.0130699l.0035928-8.4055417c0-2.2171851-1.2610778-2.785989-1.2610778-2.785989h2.201882c.7760479 0 2.3928143 0 2.3928143 3.1346951l-.0056458 8.0348781zm12.398118-10.109658s-.3773899-1.0071642-2.0055417-1.0071642c-2.4610695 0-3.0606816 2.7571642-3.0606816 2.7571642-.2000554-2.1788806-.8190635-2.8229851-2.5558327-2.8229851l-2.377944.0057463s1.3776669.531791 1.3776669 2.7947761l-.0038791 8.3864179c0 2.7670896 1.182599 2.8130597 1.182599 2.8130597h3.9179828c-.1008589-.0459701-1.5034635-1.043209-1.5034635-2.8355224l.0038792-6.8657463c.1030756-.6237313.4438902-1.1022388.960931-1.4177612 1.2923247-.7882835 3.0545857-.6012686 4.0642837.5615672zm17.7659499-.0845324c1.2728025 0 2.2228852.5721405 2.2228852.5721405l.0111649-2.209797h-3.1618029l.001595-3.3507962s-.8299268 1.4784855-2.5301867 2.9148535c-1.0675804.9025161-3.3096054 2.0161663-3.3096054 2.0161663l2.3871692.0437584-.0037217 10.1907742c0 2.8267899 1.1483932 2.8267899 1.1483932 2.8267899 2.0623228 0 3.7551395.0076577 3.7551395.0076577s-1.4525048-1.0004254-1.4525048-2.8596086l.0037217-10.1579555c.9910208.0038288.3083648.0060168.9277528.0060168m12.0006395 4.8372355c-2.0391123 2.1549892-3.6397666 1.8173794-4.9212153 3.3963543 0 .0020776.2056075 2.1409654 1.8247665 2.8956531.5541122.2591805 2.7988319 1.0777543 4.2535049-1.4584742l-.0107944 2.2448453s-.932944 1.0959333-3.8962619 1.0959333c-3.5708881 0-6.0165892-2.8374803-6.0165892-6.685193 0-3.7833071 1.9943927-7.2954876 5.7585518-7.314807 3.6901404-.020155 5.6876172 2.9918436 3.0080376 5.8256882zm-2.2318693-.8829794c.603972-1.1270973 1.0789253-3.9879506-.9838319-3.8310919-2.389159.1807511-1.9342524 6.6010502-1.9342524 6.6010502.7992991-.877266 1.9974767-1.0559395 2.9180843-2.7699583zm-41.0347201-6.9427088c.8281818 0 1.5-.671621 1.5-1.4997678 0-.8281467-.6718182-1.5002322-1.5-1.5002322s-1.5.6720855-1.5 1.5002322c0 .8281468.6718182 1.4997678 1.5 1.4997678m17.1736802 14.3894267c-.8860757 0-1.5179674-.8746091-1.5179674-1.7711095 0-3.4838421 3.0040931-3.9649293 3.8078198-4.8947878l.0060389 5.8736411c-.3546499.2997022-.7153387.7922562-2.2958913.7922562zm2.2898524-8.0106478c-.9036435 1.5021593-7.9291148 1.8206254-6.8514404 6.9786299.4260191 2.045793 1.8616374 2.6425912 3.6678264 2.6425912 1.7540346 0 2.8081023-.8693969 3.2489442-1.6783321.262419 1.5537602 1.0897523 1.6434103 1.0897523 1.6434103 2.0285314 0 3.8813849.0072971 3.8813849.0072971s-1.5113794-.9533135-1.5113794-2.7942666v-7.8422934c0-1.8758749-2.1910335-3.3358153-4.5193155-3.3358153-2.237698 0-3.6447686 1.0226359-3.6447686 1.0226359v2.4335815s.7982367-1.927997 2.8234742-1.927997c1.975279 0 2.1218603.9345495 2.1103314 1.4010424 0 0 .1987357.6317201-.2948095 1.4495161zm31.7774859 5.8439703c.0213909.9814005-.907194 2.2709151-2.8822882 2.2709151-2.0222639 0-2.8307306-1.9576139-2.8307306-1.9576139v2.4804742s1.4595183.9834754 3.6951428.9834754c2.6530215 0 5.3356613-1.9067803 5.2758764-4.56206-.0197455-.9341979-.3718728-1.7299-.9110334-2.4161542-.8973214-1.1385698-2.5318064-1.9337532-3.7971611-2.6698036-.7223546-.4206743-1.1051971-1.172286-1.1145213-1.4368284-.021391-.4642461.2172-1.4041497 2.1928426-1.4041497 1.927376 0 2.7479095 1.9192293 2.7479095 1.9192293l-.0076788-2.3233049s-1.474876-1.1069285-3.7105005-1.1069285c-2.3261245 0-4.4388884 1.4529085-4.3983005 3.3197481.0367485 1.6386068.7662334 2.7004075 2.1840669 3.6999629.5605516.3952575 1.2286062.7791034 2.0025185 1.1857725 1.1282334.5918488 1.5385001 1.3164876 1.5538577 2.0172657"/><path d="m661.3932903 53c1.2136186 0 2.1973613.9807707 2.1973613 2.1907229 0 1.2099521-.9837427 2.1907228-2.1973613 2.1907228s-2.1975713-.9807707-2.1975713-2.1907228c0-1.2099522.9839527-2.1907229 2.1975713-2.1907229zm29.6227065 8.0468828c.111684-3.6748555 6.0332442-4.010151 9.4658472-1.9378908l-1.2677812 2.4856238c-1.1821287-.8191926-2.2057586-1.2013709-3.5075488-1.0952568-1.2350316.1006724-1.3683387 1.4408079.6339956 1.3901578 3.1269415-.0789054 4.8141674 1.5596892 4.6483209 3.665437-.2678736 3.4002564-5.6404609 4.7920886-10.353231 1.8114748l1.7325712-2.5276928c1.3101874.7503336 2.6159663 1.4207153 3.9301425 1.2637418 1.3639301-.1626246 2.0520882-1.2593465-.3803973-1.5165738-3.3131515-.3505743-4.9667882-1.4045993-4.9019191-3.539021zm-25.8348981 7.9531172v-10.4711823h3.8234969v1.4692725c1.4833816-2.453392 7.2516913-2.4900191 7.2523211 1.3416006l.0010496 7.6603092h-3.8125804l-.0424063-5.2651022c-.0167946-2.1053292-.7847269-2.3035345-1.8203229-2.1871648-.859043.0966957-1.6284448.4077127-1.6284448 2.1871648v5.2651022zm-5.7739778-.0002093h3.9723389v-10.6589226h-3.9723389zm-8.716179-8.8817728c1.8022687-2.6852941 7.0738786-2.5628548 7.0719897 1.0858384l-.0039892 7.7961437h-4.0531628v-5.7284881c0-1.5389687-.2630452-1.6863145-1.5602168-1.6289668-1.0616276.0468827-1.3032597.9244695-1.3078782 1.9209376l-.0254018 5.4365173h-3.8125805l-.0424063-5.2651022c-.0167946-2.1053292-.4803251-2.2846977-1.5180204-2.1871648-1.0282484.096905-1.4772936.2390184-1.4772936 2.1871648v5.2651022h-3.9242644v-10.4711823h3.8234969v1.4692725c1.1451807-1.9056589 5.5613165-2.835361 6.8297274.1199277zm-17.5471909-2.3669518c3.1158151 0 5.6415106 2.5182743 5.6415106 5.624467 0 3.1064019-2.5256955 5.6244669-5.6415106 5.6244669-3.1156052 0-5.6413007-2.518065-5.6413007-5.6244669 0-3.1061927 2.5256955-5.624467 5.6413007-5.624467zm-16.72173713-3.5779504c1.40318746 0 2.60421012.0759752 3.59635015.2281349s1.80352835.3872014 2.42366838.7051251c1.3181649.6741491 2.3243703 1.5695262 3.0295329 2.6827827.7013838 1.1130471 1.0521807 2.381812 1.0521807 3.8060853 0 1.4207153-.3507969 2.6825733-1.0488218 3.7887136-.6978149 1.1063496-1.7077992 2.0015174-3.0328918 2.6825733-.64134319.3250399-1.45986921.5634304-2.44844039.7122413-.98857118.1486017-2.31723268.2212281-3.97548788.2212281h-4.01810413v-14.8268843zm66.52964373 3.5779504c3.1156052 0 5.6413006 2.5182743 5.6413006 5.624467 0 3.1064019-2.5256954 5.6244669-5.6413006 5.6244669-3.1158151 0-5.6415106-2.518065-5.6415106-5.6244669 0-3.1061927 2.5256955-5.624467 5.6415106-5.624467zm-49.8079066 3.6233681c-1.1084425 0-2.0071627.8957958-2.0071627 2.0010989 0 1.105303.8987202 2.0010988 2.0071627 2.0010988 1.1086524 0 2.0073726-.8957958 2.0073726-2.0010988 0-1.1053031-.8987202-2.0010989-2.0073726-2.0010989zm49.8079066 0c-1.1086525 0-2.0073726.8957958-2.0073726 2.0010989 0 1.105303.8987201 2.0010988 2.0073726 2.0010988 1.1084425 0 2.0071627-.8957958 2.0071627-2.0010988 0-1.1053031-.8987202-2.0010989-2.0071627-2.0010989zm-64.73073389-3.2847238h-1.80625747v6.9936949h1.64125068c.67724159 0 1.21991657-.0343249 1.62382631-.1044398.4036998-.0701148.73791202-.1825079.99990752-.3359234.54120546-.3212725.95393235-.7434267 1.23881048-1.2652068.28529797-.52178.42847177-1.1170237.42847177-1.7871962 0-.6718467-.1431738-1.2702299-.42973137-1.7953588-.28802711-.5249195-.69907454-.947283-1.23755088-1.2652068-.25317835-.1500667-.58466144-.2609947-.98983077-.3327839-.40537926-.0715799-.89578111-.1075792-1.46889627-.1075792zm71.54849509-5.0652225c.8695396 0 1.6173184.5184313 1.9498512 1.2620673.2559074.5728488.2760609 1.3024619.1211309 1.9115193-.238693.9378646-1.0318172 1.8545901-2.7035081 2.7244329l-.4612213-.6220339c.3268646-.2716689.6631762-.5523376.7990024-.757659.2431016-.3666902-.0743161-.2764827-.3419797-.3597833-.8674403-.2697852-1.4972372-1.0770479-1.4972372-2.0310285 0-1.1749993.9554019-2.1275148 2.1339618-2.1275148zm-39.7030668-39.0244879 14.933648 14.4684461-13.6375933 13.1210091c-.5704706.5487859-1.5021841.5471906-2.0705893-.0035895l-12.8665699-12.4659357c-.5684051-.5505807-.5667528-1.450135.0035113-1.9991203zm-2.6352767 11.8150501c-1.4270027-1.3825337-3.7446169-1.3863226-5.1763701-.0087742-1.4319596 1.3777479-1.435884 3.6153667-.0090878 4.997701 1.4270026 1.3825338 3.7446169 1.3863226 5.17637.0087742 1.4317532-1.3775484 1.435884-3.6151672.0090879-4.997701zm10.7150158-.0319061c-1.4267961-1.3825338-3.7444104-1.3863226-5.17637-.0087742-1.4317532 1.3775484-1.435884 3.6153666-.0088814 4.997701 1.4267961 1.3823343 3.7444104 1.3863226 5.1761635.0087742 1.4319597-1.3777479 1.4360906-3.6153667.0090879-4.997701zm8.5618989-25.36901268 12.8667877 12.46584698c.5684057.5507762.5667534 1.450324-.0037178 1.999106l-13.6376053 13.1209157-14.9334546-14.4685424 13.6376053-13.1209157c.5702646-.54878203 1.501979-.54718673 2.0703847.00358942zm1.6886936 10.79776498c-1.4267974-1.3825239-3.7444137-1.38631273-5.1763747-.0085747-1.4317544 1.3773392-1.4358852 3.6151415-.0090879 4.997466 1.427004 1.3825239 3.7446203 1.3863127 5.1763747.0087741 1.4319609-1.3775386 1.4360918-3.6151415.0090879-4.9976654zm-12.7185845 32.7881037v-1.7027495h-.6780991v-.2972505h1.7094292v.2972505h-.6825245v1.7027495zm1.2652753 0v-2h.5135529l.5284386 1.5971928.5107367-1.5971928h.5038974v2h-.3190344v-1.6785234l-.5386976 1.6785234h-.3156147l-.562434-1.7027495v1.7027495z"/><path d="m134 46.3158522c0-.7255372-.513469-1.3141727-1.147811-1.3158522h-1.704387c-.305122.0008069-.597466.1402154-.812721.387557-.215254.2473416-.335785.5823552-.335081.9313412v20.3652496c0 .7267251.515082 1.3158522 1.150465 1.3158522h1.701724c.30534 0 .598097-.1391453.813505-.3866634.215408-.247518.335711-.5830026.334306-.9322348zm2 .9276751v1.0045988c.001791.4157566.321476.7518739.715256.7518739h13.19518c.288578.000835.56561-.1196133.769947-.3347633.204338-.2151501.31918-.5073125.319179-.812v-1.7027634c.008393-.3081614-.104073-.6063123-.310825-.8240062-.206751-.2176938-.489447-.33561885-.781293-.3259119 0 0-12.752349 1.3205104-13.165259 1.3710562-.425857.0397498-.74999.4206128-.742185.8719159zm-10.821279 20.7564727c-3.287508 0-5.343694-2.5342335-5.343694-5.3578326v-8.1479261h-.938434c-.495175 0-.896593-.409116-.896593-.9137861v-1.3706792c0-.5046701.401418-.9137861.896593-.9137861h.935445v-5.0136398c-.000796-.3403475.131511-.6669889.367645-.9076516.236135-.2406628.55663-.37550618.890574-.37469854h1.861925c.334493.00081054.654972.13700994.890934.37863914.235962.2416293.368078.5688954.367284.909803v5.0045019h2.893007c.495175 0 .896593.409116.896593.9137861v1.3615413c0 .5046701-.401418.9137861-.896593.9137861h-2.90795v7.5448273c0 1.4772875.878661 2.4885442 2.450688 2.4885442h.265989c.541876-.0000026.981616.4468078.983263.9990728v1.4833794c.000002.2654992-.103687.52008-.288171.7075303s-.43459.292352-.695092.2915425zm-30.164244-13.6329355c1.8964893 0 3.5323923 1.3674105 3.6974303 3.2347345h-7.3659066c.165038-1.8555613 1.771987-3.2347345 3.6684763-3.2347345v-3.3670645c-5.1335505 0-8.014477 4.0816468-8.014477 8.380903 0 4.5845009 3.0836048 8.619097 8.0492219 8.619097 3.3963083 0 6.7462901-1.8173326 7.3774881-4.8021104.048988-.2273877-.005869-.4650796-.149245-.646673-.143376-.1815933-.3599-.2876198-.589083-.2884593h-2.4292434c-.4054755-.0001632-.7839569.2063957-1.0076004.5499049-.6948969 1.035115-1.7140789 1.5850199-3.2167934 1.5850199-1.9940347.0131301-3.6420014-1.5761988-3.7321751-3.5993773h10.3221133c.952588 0 1.375317-.5234389 1.375317-1.4174018 0-4.1933922-2.443721-8.380903-7.9971046-8.380903zm47.994203 0c1.892224 0 3.526944 1.3674105 3.694756 3.2347345h-7.363472c.164918-1.8555613 1.773598-3.2347345 3.668716-3.2347345v-3.3670645c-5.132731 0-8.00868 4.0816468-8.00868 8.380903 0 4.5845009 3.081374 8.619097 8.040506 8.619097 3.396745 0 6.741411-1.8173326 7.375046-4.8021104.047922-.2277448-.007685-.4653127-.151377-.6467269-.143692-.1814143-.360169-.2873568-.589311-.2884054h-2.41302c-.413363-.0081755-.802059.1993411-1.030018.5499049-.694394 1.035115-1.709945 1.5850199-3.214466 1.5850199-1.979902.000859-3.612002-1.5777327-3.709223-3.5876146h10.317541c.949006 0 1.374322-.5234389 1.374322-1.4174019 0-4.1933921-2.441953-8.3809029-7.99132-8.3809029z"/><path d="m117.030702 45.3848085h-34.4473665c-.3757236.0008014-.7357445.1529519-1.0008619.4229799-.2651174.2700279-.413614.635814-.4128222 1.016889l.1192982 13.7211032s-7.4084206-13.6001059-7.8110521-14.2928159c-.4655914-.7944217-1.3169246-1.27296496-2.2278946-1.2523229h-2.8303507c-.3762398-.00064181-.7373412.1502233-1.0036631.4197709s-.4159891.6354737-.4159891 1.017073v20.1218648c-.0007889.3815986.1481168.747843.4138792 1.0179581.2657625.2701151.6265499.4219116 1.0027905.4219108h1.8163157c.3765146-.0008015.7372941-.1532706 1.0029708-.4238659.2656767-.2705952.4144876-.6371507.4136958-1.0190279l-.1133333-14.1052699s7.4919293 13.7332029 7.8140346 14.2746662c.4541058.8073808 1.3087355 1.2965546 2.2249121 1.2734975h2.6007016c.3762406.0000008.7370281-.1517957 1.0027905-.4219108s.4146682-.6363595.4138761-1.0179581v-17.7654407h31.4410504c.533682 0 .966316-.4387963.966316-.9800788v-1.4519686c-.00079-.2599335-.103356-.5089024-.285135-.6921358s-.42788-.2857216-.684163-.2849181z"/><path d="m111.448171 54.2138278c1.52439 0 2.676829.5361289 3.088414 1.4728816.198171.4448103.582317.5302374 1.109756.5302374h2.103659c.415462-.0111956.74572-.3407562.743902-.7423323 0-2.3566107-2.917682-4.4746145-7.051829-4.4746145-4.268293 0-7.085366 1.9677699-7.085366 5.102062 0 2.3978514 1.963415 3.8294923 4.375 4.418645 1.10061.2945763 2.97561.7276035 3.890244.9603188.984756.2474441 1.865854.5390747 1.865854 1.3550511 0 1.2872986-1.405488 1.7232716-2.935976 1.7232716-1.454268 0-2.902439-.6245019-3.317073-1.6260614-.237805-.5891526-.658536-.6657425-1.29878-.6657425h-2.134147c-.439749.0124481-.792277.355655-.801829.7806273v.2680645c0 2.288858 3.176829 4.6837636 7.560976 4.6837636 3.109756 0 7.439024-1.2460579 7.439024-5.2758621 0-2.3330445-1.615854-3.9473228-4.243902-4.592445l-4.036586-.9927222c-.957317-.2415526-1.85061-.5420204-1.85061-1.3344308-.006097-1.181251 1.143293-1.5907121 2.579269-1.5907121zm-75.948171-13.2138278c.2761434 0 .5-.22386127.5-.5 0-.27614343-.2238566-.5-.5-.5-.2761387 0-.5.22385657-.5.5-.0005714.13278104.0519218.26029239.1458147.3541853.0938929.09389292.2214043.14638608.3541853.1458147zm-9.9870108-1.00016898c.272674-.00708606.4893539-.23140524.4869917-.50416113-.0023623-.27275588-.2228949-.4932885-.4956508-.49565076-.2727559-.00236225-.4970751.21431764-.5041611.48699169-.0035621.13706935.0493224.26958705.1462777.36654243.0969554.09695539.2294731.14983983.3665425.14627777zm-6.1752678 14.00016898-.3377214-.2688331c.8915846-.6613293 1.8372046-1.7151549 1.9891792-2.3307827.1519746-.6156277 1.182025-.4838995.9861466.1397932-.2499139.7957459-1.465711 1.7608566-2.6376044 2.4598226zm-6.7281177-13.78795582c-1.415167.64167826-1.6248214 2.15920174-.6289631 3.06849937 1.1967771 1.09784765 3.1739344.14293308 2.9817512-1.53577025 1.6102621.08515162 2.6439747-1.65133316 2.3906423-2.86778485.7134073-.63863713.7862039-2.00410415-.0727967-2.54238402-.9201497-.57477342-1.7849741-.35581211-2.3294931.75420005-1.4734044-.11252178-2.8827477 1.09784764-2.3294931 3.1232397l-.6813767-.30411292c-.4359681-.8489096-.3512903-1.88652396.2159459-2.64613398s1.5101916-1.09814265 2.4047338-.86332913c.2865582-.63707666.8232579-1.11331526 1.4715323-1.3057591.6482744-.19244383 1.3445807-.0822299 1.9091446.30218646 1.2404551.78461133 1.5025231 2.80696226.1834476 3.78924699.6202276 1.88550012-.6173157 3.43039375-2.5042051 3.25400826-.2213019 2.43290337-2.4168491 2.73701634-3.8320162 1.58746945-.6605532-.56768429-1.1131348-1.35618794-1.2812212-2.23218884-.1630645-.72074763-.1630645-1.36546702-.84444128-2.11054367-.51248849-.55956778-1.42972641-.53827988-1.42972641-.53827988 0-1.76689607-1.58114346-3.38173568-3.54374142-2.59712434-.69302421-.62647262-1.5520248-.69033633-2.16934048.08515162-.25950012.3468087-.34879045.80039922-.24134062 1.22599849.10744984.42559926.39927669.77423789.78877151.94232663-.05823733 1.60875736 1.1181567 2.63665903 2.83324602 2.49372596.06988479.85455731.97547524 1.64829203 1.77915037 1.76081381v.43184035c-.85900059-.08515162-1.32198735.22504356-1.89562503.96707909-2.01501156-.10035727-3.42726676.83631057-3.3719413 2.34775177-1.41516708.282825-1.68014692 1.8246775-.87355993 2.6579469.33854122.3569078.82574273.5130054 1.29768242.4157727.47193969-.0972326.86588179-.4348701 1.04928191-.8993122 1.43263827.2858661 2.6963883-.7846114 2.75462563-2.0193098 1.33363481 0 1.91891996-.5534855 2.13730994-1.8246776l.50375289.0425759c.15141705 1.3837137-.46298676 2.6944404-2.05577769 2.5363017-.04076613 1.648292-1.57531972 2.5727953-3.00504613 2.0041042-.66681741 1.3076855-2.19845914 1.8246775-3.4942397.5534855-.59061165-.5509129-.84789092-1.3935192-.67168696-2.1998185.17620397-.8062993.75804868-1.4488861 1.51904009-1.6776213.03785426-1.61788071 1.18221776-3.15365096 3.4068837-2.56063076.1731197-.41970735.54688114-.71160363.98129898-.76636456-.46298676-.1976734-.81532259-.46529277-.91141418-.96403796-.76242141.16962595-1.55515417-.07661606-2.10489095-.65383017-.54973677-.5772141-.78127655-1.40644053-.61479228-2.20179016-1.51125867-.83631053-1.53746547-2.39640982-.78620393-3.32395423.75126153-.9275444 2.08198448-1.176917 3.24964291-.13685081 1.97133356-1.14346459 4.20182323.25545485 4.07661298 2.6032066 1.38022464-.09731613 2.21884224 1.16171136 2.06451324 2.47547918.2271256-.57781455.4950173-.84543392 1.004594-.96099683z"/><path d="m16.6780759 37 .3219241.24792139c-.642091 1.43100545-1.5414686 2.70693156-2.6447734 3.75207861l-.3552266-.30234316c.7821416-1.32298507 1.6789385-2.56120517 2.6780759-3.69765684zm-9.93821104 8 .26013514.3770492c-1.08363395 1.03015-2.30654358 1.9125468-3.63513514 2.6229508l-.36486486-.3672131c1.08004197-1.08124 2.345492-1.9720905 3.73986486-2.6327869zm2.26013514-3.53827558-.38793103.53827558c-1.05459771-.77679291-3.1408046-2.8654311-3.61206897-3.61966156l.33045977-.38033844c1.00862069.58017728 2.97988506 2.54955681 3.66954023 3.46172442zm-2.39346387 18.16221758c.12512407.6196234.02085401 1.3038521.59582888 1.9704612.64801278.8365251 1.34429608 1.6356218 2.08540108 2.3933322-1.08142941.4169977-3.24130911 1.2832959-4.79642249 1.4683019-.34065429.081286-.66361363.2225528-.95332621.4169978-.25866015.4916144-.42231617 1.0263574-.48262139 1.5769563-.04772236.5095259-.06463409 1.0214002-.05064545 1.5329072.07091483 1.0270282.33880697 2.0314784.78947326 2.9600967.536246.9955088 1.05163798 1.4448092 1.68619574 1.7355329.27021305-.0804502.55209006-.116174.83416043-.1057177.97399159-.0167211 1.89946039.4182031 2.49950215 1.1746416.15491551.2114354.46474653.2525479.87288931.2525479 1.02583796-.0513361 2.03439796-.2809867 2.97914436-.6783555.2144984-.170323.8103273-.563828 1.3942396-1.016065s3.8430963-3.1744688 5.2850022-3.8704439c1.008884.5632356 2.1394216.8813463 3.2979129.9279668.2001182.0038572.4000273-.014863.5958288-.0557954.4021845-.0910348.9175765-.267231 1.5700091-.3905684.9636673-.2024159 1.9400486-.3407482 2.9225407-.4140611 1.0695128 0 4.2065519.0939713 4.9483589.0939713.7418069 0 1.8917566-.0646053 2.3177743-.1057177 1.198853-.3449534 2.3748862-.7627506 3.5213487-1.2509933 1.3972187-.6108136 4.3406134-2.6253239 4.8232348-3.0863707.2192277-.1916674.4187981-.4041257.5958289-.6343064.0595828-.0763517.0804369-.1057178.0804369-.1673865 0-.0616686-.0178749-2.0380031-.0178749-2.0380031s.7030781-.7693902.9741802-1.0336845c.0198216-.0237789.0284831-.0547283.0238332-.0851616-.1838238-.9448904-.2419099-1.9093698-.1727904-2.869062l-.7120155-.325963c-.0339232 1.3073728-.4272541 2.5811463-1.1380332 3.6854379-1.0605754.1644498-3.0834144.7840732-3.8103257 1.5975125l.4021845.111591c.6819398-.3982027 1.4568008-.6157076 2.249254-.6313699.7388278 0 1.0665337.1938159 1.0665337.3964416-.0357746.2038816-.1009846.4016627-.1936444.5873207-.0535984.1500884-.1310265.290839-.2293941.4169978-1.0154525 1.0932889-2.2035774 2.0175229-3.5183695 2.7369148-1.0019501.5414424-2.0688767.9567915-3.1757679 1.2363103-.4081428.1145275-.9712011.2936604-1.3376359.4023147-.515392 0-3.2144968-.0910347-4.787485-.0910347-1.5729883 0-4.8232348.2261185-5.8569979.481603-.4677257.1174642-.5958289.2936604-1.1290958.2936604-1.0158882 0-2.3505449-.5080325-3.1698096-.8986008-.2428873.0842643-.4806234.182315-.7120155.2936604-.5958289.2936604-1.8738819 2.0556227-2.6276054 1.5182242-.3813305.7782001-2.0407139 1.512351-2.6097305 2.3169805.062562-.4228709.7328695-3.1539126.7954316-3.7001209.0225503-.09388.0076173-.1927128-.0417081-.2760408-.5958288-.9984453-2.2969203-1.6298151-3.2502465-1.8148212-.2800396-.0557955-.4200594-.0939713-.5958289-.1350838l-1.5044679-.4463638-1.39721873.4463638 1.61171713.2936604-2.04667221 1.3332182c.35749733-.1321472 2.55908504-.7370876 2.72293799-.7840732.22155372-.0719321.46067032-.0719321.68222402 0 .2979145.1057177 1.1499498.2936603 1.6564043.4698566.3880599.2155433.7038539.5380546.9086391.9279668.0742093.3037689.1092427.615553.10427.9279668-.0004627.4100052-.0524982.8183719-.1549155 1.2157541-.1800684.7140024-.4576798 1.4005904-.825223 2.0409397-.1609708.2941132-.4276901.5182682-.7477652.6284332-.5027067.2364407-1.0517639.3617224-1.608738.3670755-.41410107 0-.69414065-.0176196-.86991017-.2525479-.82052865-.9560681-2.09416092-1.4110692-3.34557916-1.1951978-.86395188-.5168423-1.72194547-2.1789601-1.72194547-3.5033685 0-.792883.40814278-2.0556227.62562033-2.6752461 1.40615615-.1850061 4.22144762-1.2392469 5.59185407-1.8529971.2979144 0 1.072492-.2936604 1.8262155-.2936604 1.8381321 0 3.6643476 1.5887027 4.766631 2.6605631.1817278-.2936603.5243295-.7429607 1.4657391-.7429607 1.3018861 0 2.0496513 1.1746415 2.4220444 2.3698393l.6792449-.4874762c-.1393859-.7369721-.4958143-1.4171804-1.0248257-1.9557782-.5431642-.4895337-1.2429933-.7762728-1.9781519-.8105027-.4021844 0-.8222438.0880981-1.0844085.0880981-.9324722 0-1.3108236-.4081879-1.9990059-.8809812-.741807-.5050958-2.1211508-1.2392468-3.1072476-1.2392468-.6345578 0-.9205556.2466747-1.4448851.2466747-.76861921 0-1.05461708-.2936604-1.42403098-.763517-.1608738-.1967525-.94140963-.8809812-1.14994974-1.1540853-.18122364-.3574536-.31825189-.7350624-.40814279-1.1247193z"/><path d="m7.27043677 60.3322183c.21910421.2635064.46048473.5071273.72139341.728089.29981355.2122542.61276145.4047846.93691343.5764038.4675477.2907244.9629855.5326363 1.47870679.7220215.5133067.1389359 1.0432905.2042903 1.5744935.1941571.7782668 0 1.6972202-.1607863 2.457527.1971908.5088667.2396626.5417933.7857293.9488867.9465156.6286001.2487638 2.3946669.3034039 3.3495404.3034039 1.7581067.0028458 3.5117134-.1801669 5.2323472-.5461002l-.5986667-.6704486c-1.4881021.2211346-2.9869932.3598797-4.4900005.4156175-1.6134068 0-3.1370137-.2608986-3.1370137-.9374146 0-.4702241.4968934-1.1437065 1.4427868-1.1437065 1.0147402 0 2.5503203.6067409 2.8316937.7068531.1858475.0817399.3981969.0739343.5777134-.0212359l.5986667-.3033704c-.7872467-.3731456-3.535127-1.3287624-4.4900005-1.3287624-.3875995-.0532005-.7714741.1207563-.9907934.4489882-.36818.4762915-1.3470001.9101112-2.9125136.9101112-.7927474.0027321-1.5831804-.0868438-2.3557536-.266966-.69712218-.3261057-1.36341015-.7160384-1.9905669-1.1649423-.73916535-.5070172-1.3778314-1.1501806-1.88280687-1.8960651-.13089412-.2061508-.19955637-.4465467-.19756002-.6916845.01313613-.1682646.03713418-.3354764.07184001-.5005612.14306685.1842682.30456973.3530325.48192672.5035949.91933751.8623693 2.06100879 1.4430074 3.29266696 1.6746046.3384096.075409.6832893.1170682 1.0297068.1243819.5006448-.0247577.9766031-.2278075 1.3440068-.5733701l-.4939-.5824712c-.2320068.0423175-.4679082.0585955-.7034334.0485393-1.81994688 0-4.13080046-1.2134816-4.66361385-2.6029181-.05088667-.1365167-.11674001-.2123593-.06286001-.3397749.07270667-.2109275.12581947-.4282753.15864669-.6492127.17821409.1888543.37938022.3539964.59866673.4914601.6764934.4429208 1.9666202 1.0496616 2.22105356 1.2134817.52706818-.1487188 1.03762868-.3520376 1.52360678-.6067409.4622189-.2447417.9751867-.3747132 1.4966669-.379213 1.3320334 0 2.8616269.7705609 4.2954338 1.486515l.9818134-.3883141c-1.2751601-.9101112-4.0469871-2.1812332-5.5885539-2.1812332-.8980001 0-1.7660669.676516-2.37371361.676516-.74833341 0-2.88856697-1.0587628-2.88856697-1.9415707 0-.676516 1.38591348-1.0617964 3.61295368-1.3408972-.3801533.5673027-.74833338 1.1740435-1.08658008 1.7807843l.56574008.3033704c3.490227-5.1239262 7.1211407-8.4518996 10.1773344-10.47841394 1.1105268-.73415639 1.3619668-1.16494238 1.7511002-1.96887397.9429001-1.95977285 1.8379068-3.46449009 3.3884537-3.46449009.681468.02149634 1.3161405.35651311 1.7241601.91011124l1.1225002.33977486-1.1374668.77966195 1.1644068.47022414c-1.998526.65333942-3.6163584 2.15783072-4.4301338 4.11977018-1.6164002.08797741-2.394667 1.41370613-2.924487 2.52404183-.3562067.7493249-.9249401 1.0496616-1.7511002 1.6169643l-6.6152674 4.6901065.8980001.1304493 6.1064007-4.1470735c1.1973334-.8221338 1.7750468-1.4288747 2.0654002-2.0143795.5657401-1.1497739 1.1763801-2.0022448 2.3737136-2.0022448.6458702.016638 1.2616978.2799442 1.7241602.7371901l1.0716134.3549434-1.1554268.728089.9788201.6067408c-2.8017603.8888753-4.5259205 2.9244908-5.5466472 6.8136995l.7423467.1698874c.3741667-1.2862906.7393534-2.4694352 1.3978868-3.5099957 1.6223869-.0212359 3.265727-.08191 4.8791339-.08191 4.3014204 0 7.8754608.185056 9.806161.7614598l-.6824801-1.2134817c-2.0654002-.3428086-5.0587338-.512696-9.1356543-.512696-1.3649601 0-2.7448869.0485393-4.1188271.0637078.8980001-.9495494 2.1611869-1.7474136 4.1248138-2.3632555l-1.3829201-.7917968 1.5475535-.8524708-2.0953336-.7948305c-.3957488-.378088-.8782541-.65022519-1.4038735-.79179677.6764934-2.10235695 2.9753737-3.33707452 5.1784672-4.17741055l-1.5505468-.65528009 1.5535402-.86157197-2.394667-.77662825c-.6315934-.7402238-1.2332534-1.08606607-2.1522068-1.08606607-2.2240469 0-3.157967 1.95673915-4.0410005 3.6920179-.4639667.91011123-.7573134 1.29842536-1.5475535 1.82022246-2.1781847 1.46199746-4.1864694 3.16865524-5.9866673 5.08752174-1.0776001-.7917967-3.301647-3.11561407-3.903307-4.38066868-.19606492.29423035-.35495322.61221598-.47294676.94651568.22749336.24269633 2.84366696 2.9214571 3.81650036 4.0590961-.07184.08191-.1466733.16382-.2185133.2487637-1.0386868.2093256-3.72969374.4702242-4.64864717.3428086l-.51485338.9283135c.6854734-.0697752 3.36151365-.3883142 4.47204045-.4550557-.3352534.4125838-.6675134.8403361-.9878001 1.2802232-3.44233368.3974152-5.74121392 1.1103357-5.74121392 2.3996599 0 .2123593.08381334.4550556.08381334.6825834.03333548.419589-.19824391.8148137-.5777134.9859539-.24844669.1547189-.26341336.2639322-.15864668.4125837s.63758007.9495494.63758007 1.1042683c0 .2608986-.25443336.5187634-.45798005.7493249-.20354669.2305616-.17361335.2548312-.03292667.512696l.99977344 2.1478625zm42.84163223-12.7288605c-.2081449.2176222-.3930584.4565041-.5517242.7127492l-.5344827-.7502623c1.7787356-2.3777545 6.4741379-3.49449108 9.2270115-3.69071354v-1.26967471c-.3505747.10965373-.7270115.23084995-1.0747127.31453306-.4341566.12618405-.8817754.19980866-1.3333333.21930745-.3218481.012264-.631376-.12505344-.8390805-.37224554-.3706896-.52806926-.025862-1.33027283 1.1839081-2.07764953l-.9568966-.79643232c-.7356322.95802728-1.4597701 2.01993704-2.1982758 2.64900315-.6724138.57712487-1.3735633.8656873-1.9425288.43572927-.3045977-.22796432-.4195402-.33473242-.4482758-.93205666.0402298-.88011542.5747126-2.22193074 1.0402298-3.08473242l-1.1293103-.13273872c-.4264977 2.46621644-1.8478063 4.64628118-3.9281609 6.02518363l-.6264368-.62040924c.9569368-.55234186 1.7779519-1.31368637 2.4022989-2.22770199.7729885-1.19176285 1.3994252-2.66631689 1.3994252-4.00524659l3.2672414.31164743c-.643229.88012254-1.1499385 1.85304079-1.5028735 2.88562434-.1494253.49921301-.1436782.89742917.0373563 1.03305352.3448276.25970619.954023-.15582372 1.5402299-.79066107.8304597-.89454355 1.6436781-2.24501574 2.0114942-2.72691501l2.362069 1.96799581c-1.0488506.55981112-2.066092 1.1975341-1.8649425 1.55535152.2011494.35781742.8620689.23084994 1.5948275 0 .6102701-.19005817 1.1980457-.44647506 1.7528736-.76469045v3.20015739c-1.6693317.02190483-3.3273122.27931962-4.9252874.76469042.4425288.6261805 1.7097702.8656873 2.5172414.9666842l-.4051724 2.5970619c-2.0316092-.8656873-3.6005747-1.3562434-6.0660919-1.4024134l.8160919-.7040924c1.6143534.0395897 3.2035241.4108069 4.6695402 1.090766l.1465518-.9868835c-.928161-.1240818-2.1005747-.6521511-2.5862069-1.2552466-.7869283.286863-1.5335567.6748382-2.2212644 1.1542498z"/><path d="m39.7138643 56.5302315.7758112-1.6850192c-.9121145-1.0847785-1.7470204-2.2326794-2.4985251-3.4351886l-.6725663-1.1845478c-1.5545723-2.9613694-.9882006-4.376904-1.8171092-5.67990656-.6873156-1.07793848-4.0147492-.40570761-4.5663717-.29613694l.961652-1.60210087-1.8967552.15399121 1.6076696-1.9189674c.2168066-.35050369.3677774-.73793561.4454277-1.14308861.2949853-1.01278834 1.1504425-2.73926673 3.681416-2.73926673 2.8112094 0 3.6843658 2.28617721 4.9115044 3.27823597 1.3893805 1.12235902 3.2153392 2.7037303 4.840708 4.28214022l.6430678.63669441c.8853498.8705795 1.7084343 1.8027623 2.4631269 2.78961l.5486725.7699561c3.3834808 4.9632552 7.5899705 14.4425988 9.439528 18.7869277.179941.4205145.3097346.8439903.4188791 1.1845478-1.4027708-.7846297-2.7653563-1.6395706-4.0825959-2.5615846l-.8348082-.5922738c-.5162242-.3731326-1.0353983-.7581106-1.5545723-1.1608569l-.8584071-.6751922c-.5132743-.4145917-1.0235988-.8380676-1.5250737-1.2733889l1.6932153 9.8968967c.1238938.5922739.6224189.4856646 1.020649-.0266523s.5516224-.6515013.4011799-1.3326163l-1.5811209-7.2642392.8584071.6751922 1.5221239 6.1744553c.1474926.5567375.3834808.7344196 1.0324483.761072.6489676.0266523.7846608-.2191414.6489676-.6515013l-1.6489676-5.1231691.8348083.5922738 1.5575221 4.6049295c.40118 1.1845478 0 1.3148481-.7020649 1.3148481s-1.339233-.1658367-1.7256637.0858797-.8702065.92987-1.4513274 1.5251052c-.5103245.5271238-1.2566372.3879394-1.4070797-.5922739l-1.8702065-11.3598131c-1.2020659-1.0807294-2.3425166-2.2285988-3.4159292-3.43815-.4542773-.1954503-.9675516-.4323599-1.4218289-.6455785l-.7050147-.328712c-.2507375-.1184548-.4365782-.1984118-.5103245-.2221027-.481173.648298-1.0138902 1.2563821-1.5929204 1.8182808-.2506326.271736-.6046044.423569-.9734513.4175531-.164834.011349-.3297205-.0213483-.4778761-.0947638-.212953-.1488284-.3894649-.3442558-.5162242-.5715443-.1386431-.2102572-.339233-.4797419-.519174-.7788402-.3687316-.6248489-.7669617-1.4036891-1.1268437-2.0374221-.4041298-.7107287-.7492625-1.2408138-.7964602-1.3296549-.0751747-.1108836-.1655424-.2105765-.2684365-.296137-.2075617.398707-.3244303.8386754-.3421829 1.2881957l-.7050148-.2369095c.1002317-.4614534.2282945-.9163679.3834808-1.36223-.0212853-.2878291-.2270814-.5280612-.5073746-.5922739-.3215339 0-.6519174.3553644-.8171091 1.0305566l-.7138643.296137c.0825958-1.089784.4542772-2.2861773 1.5309734-2.2861773.8849558 0 1.4070797.6663082 1.8230089 1.2881958.4159292.6218875 1.7699115 2.4845889 2.0648967 2.8488374l.5368732.6840763c.0646312.2923297.1859108.5690413.3569321.8143766.1858407.2961369.3952803.2694846.6725664 0 .1268437-.1184548.5368731-.4530895.9351032-.8706426.3023418-.3144894.5749013-.656519.8141593-1.0216725.3952803.1776822 1.1327434.5300852 1.7256637.793647-2.5427728-3.1449743-4.9764011-6.9592182-6.0294985-9.5563392-.4365781-1.0720157.4159292-1.4303414.8259587-.3731325 1.1179941 2.869567 4.3893806 7.9394315 6.7846608 10.6017026 2.7846608 3.0916697 7.8761062 7.5337239 11.1769911 9.3312751-.4808259-.9387541-1.1150442-2.2920999-1.8466076-3.8497803-4.0294986-2.2861772-8.1032449-6.4883604-10-10.0982698l.8348082.0977252c1.7787611 3.1301675 5.9970502 7.3145826 8.4896755 8.528744-2.2802359-4.8566459-5.2448377-11.0074102-7.5604719-13.6519131-2.8702065-3.28415872-6.0058997-5.82205233-7.5044248-7.1428231-1.4985251-1.32077078-2.0855457-2.92583301-4.2094395-2.92583301-1.7699115 0-2.6755163 1.26746612-3.0265487 2.54677772-.0563049.23763361-.1563506.46261099-.2949853.66334675l-.8259587.9979815 1.7905605-.21914133-1.0353982 1.45699376s2.8053097-.63373306 3.7876106.70480593c1.0589971 1.44514828.3775811 3.06501738 2.1120944 6.21887578.7640118 1.3859209 2.6106195 3.8764327 3.2300885 4.4272474l-1.2123894 2.5556618-.5339233-.6959218zm-27.2861208.7857819-.4277435-.2731552c.3650345-.2655346.7674581-.4851099 1.1964853-.6528409.228915-.0860306.4733832-.1323473.7208824-.1365776.4597736.0313018.9038189.166468 1.2922042.3933435.6401196.3141285 1.361002.6801564 1.9143765.6801564.2093849 0 .4127874-.0437048.6520845-.0437048.5444008 0 1.0708544.2239873 1.3699757.2239873.182464 0 .2991213-.1502354.4277435-.3086654.3122983-.4011119.7457095-.7105286 1.247336-.890486.6397028-.2206735 1.3205952-.3246137 2.0041129-.3059338.4851999.0017078.9690661.0465344 1.444756.133846 0 0-.448682.494411-.5593569.603673-.5982427 0-1.7259301-.0191208-2.4498037.2485713-.3641632.0890068-.6124569.3962392-.5982427.7402506 0 .4889478.5982427.6774249 1.2622921.8631705.3897772.0965892.7927025.1416628 1.1964853.133846.7417311-.0534451 1.4771929-.1640108 2.1985418-.3305178.7762617-.1468922 1.5439726-.3292245 2.300243-.5463104l.3798841.6200623c-1.1312199.3658503-2.2860153.6678019-3.4578426.9041438-.5749764.1157836-1.1611629.1789217-1.7498598.1884771-.897364 0-1.8485698-.3387125-2.6382501-.6828881-.6670406-.3195916-1.262292-.5927468-1.794728-.5927468-.6072832.0172982-1.1986914.1812983-1.7139652.4752901-.578138.3486267-1.1852055.6554934-1.8156665.9178015-.4988657.2010566-1.0371043.3079077-1.5823518.3141285-.3772759.0339321-.7555358-.0550848-1.0678632-.2513028l.8794167-.4889478c.1260244.086954.2820935.1296134.4397084.1201883.2154878-.006429.4268247-.0558422.6191811-.1447723.225818-.0977191.4437304-.2099966.6520845-.3359809.2108189-.127154.4108035-.268688.5982427-.4233906.1481036-.0696549.2426324-.2076987.246375-.3597904.0037427-.1520918-.0839-.2938739-.2284277-.369534-.1655082-.1422677-.3458371-.2694333-.5384184-.3796857-.3050631-.2187521-.6830176-.3354073-1.0708544-.3305178-.4683761-.0047122-.9311047.0936665-1.3490372.2868129z"/><path d="m23.7214625 58c-.2373139-.0777339-.478167-.1403289-.7214625-.1875.3378693-.5138799.7452457-.961814 1.2065308-1.3266509.786154-.6091336 1.7083932-.9433101 2.6555959-.9622642.3070053-.0212264.9547865-.0919811 1.3139827-.0742924.4597598.0149999.9181761.0646342 1.3723137.1485849.3530561.0778301.6876919.1910377.9609266.240566.3176061.0333021.6371804.0333021.9547865 0 .8050592-.1472496 1.5870304-.4297355 2.3209601-.8384434l.2149037.9091981c-1.1052191.6509434-2.3547307 1.2771227-3.4998605 1.2771227-.58331 0-1.2034607-.0495283-1.7775607-.1132076-1.0192576-.1132075-1.9003628-.2688679-2.201228-.2688679-1.0200309.044569-2.001023.4635236-2.7998883 1.1957547zm-.6853989 3.5081481-1.0360636-.4592592c1.442837-.6878987 2.9640715-1.2090043 4.5323961-1.5525926.8493306-.0919369 1.6915795-.2374303 2.5213936-.4355556.2689487.6666667.806846 1.3777778 1.5800734 1.3777778.4273354-.0707975.8401195-.2078614 1.2224939-.4059259.5226161-.2251852 1.0482885-.4681482 1.3202934-.5925926l2.0568459-.8888889c.3056235-.1362963 1.158313-.5274074 1.2224939-.5511111l.5440098.2962963c-.1697704.7397354-.4176121 1.4605693-.7396088 2.1511111-.0958905.212418-.2202284.4116631-.3698044.5925926-.33437.3543578-.7085331.6713862-1.1155257.9451852-.5440098.3733333-1.2224939.7585185-1.9101467 1.1496296-.547066.2962963-1.0971882.6162963-1.6564792.8651852l-.3056235-.5096296c.8671739-.4936121 1.7039613-1.0357644 2.5061125-1.6237037.3636919-.2637037.7151589-.5274074.9688264-.7496297.1495747-.1295989.2829256-.2757862.3973105-.4355555.2713019-.4055988.5045111-.8339836.6968215-1.28-.3239608.1511111-1.5281173.7051852-2.0812958.9837037-.6112469.2962963-1.6106357.8029629-2.1668704 1.0577778-.3459364.1716926-.7246094.2725488-1.1124695.2962963-.4585757-.010367-.8700924-.2755702-1.0574572-.6814815-.3942542-.6785185-.8160146-.7437037-1.9223716-.7555556-1.4531924.031272-2.8696987.4483791-4.0953545 1.2059259z"/><path d="m29.2073127 58.8006733s-.1391551-.4866685-.2073127-.6643025c.1252447-.0324227.2553905-.0488218.3862265-.0486668.3606674 0 1.2438764.085167 1.6130635.085167 1.3830316 0 1.8942137-.3723014 2.3003195-.6862025.3464679-.2676677.7042954-.4866685 1.6443025-.4866685.7086041.0226876 1.4059845.1588682 2.056088.4015015l-.0596379.647269c-.4478056-.2052829-.9462357-.3162224-1.4540291-.3236345-.2973189-.0157683-.5950314.0249467-.8718495.1192338-.2252734.1262917-.4346529.272262-.6247781.4355682-.3051118.2093338-.6486811.3737943-1.0166845.4866685-.5750151.169623-1.1813152.2479607-1.7891373.2311675-.6647999-.010084-1.3268359-.0761012-1.9765709-.1971007zm-9.2073127 6.3491728.6655348-.2819777c.6731193.2844177 1.3860901.4583821 2.1124788.5154432.3229282-.0138486.6391242-.0986542.9269949-.2486256.1960951-.0909606 2.4214771-1.2128075 3.5237691-1.613034.2858386-.1116349.5861209-.1800722.8913412-.2031453.2644313 0 .279287.1212808.3535654.2455935.2079796.3395862 1.8510187 2.728817 2.0174024 2.9168022 1.3934635-.4366107 2.8196095-1.0763667 3.6426146-1.8828837s1.5687606-1.8192113 2.2580645-2.574184c.2202134-.2437601.4709593-.4568268.7457555-.633692.713073-.3850664 2.9265705-.4184186 3.8624788-.3759703l-.5645161.7852929c-1.6430391 0-2.5611206.1728251-2.9711376.488155-.2567571.218869-.4880396.4670987-.6893039.7398126-.5585738.7458766-1.1706281 1.764635-1.4142614 1.9647482.525042.4158433 1.1715507.6400323 1.836163.636724 1.3904923 0 2.37691-.8883815 2.9325127-1.3856326l.4664686.2819777c-.3459278.4892312-.7650139.9199742-1.2419355 1.27648-.5187661.3371573-1.0848187.5917329-1.6786927.7549727-.8081494-.157665-2.5848896-.5215073-3.0008489-.6064038-1.5360781.6367239-4.0377759 1.6706424-4.8786078 1.928364-.1863083.0466073-.3761486.0770361-.5674873.0909605-.6655348.0394163-1.5895585.0333522-2.4303905.0212242-.4819604.0112549-.9641486-.0069699-1.4439728-.0545764l-.7368421-.7852929c.498929.1161647 1.0094997.172135 1.5212224.1667611.9015394.0106696 1.8005538-.0994228 2.6740238-.3274581.2555178-.0667044.2971137-.2183053.2228353-.4578348-.1444149-.4157411-.3697944-.7973516-.6625637-1.121847-.2174378-.2494109-.4560577-.4787157-.713073-.6852362-.1990662-.1364409-.3921901-.1728251-.9388794.0181921s-2.0797963 1.0399824-2.7542445 1.4098887c-.3327674.1788892-.5942275.2334655-1.188455.0879286-.9625257-.2584676-1.8941671-.6245247-2.7780136-1.0915268zm4.5-18.1498461c.2761424 0 .5-.2238576.5-.5s-.2238576-.5-.5-.5-.5.2238576-.5.5.2238576.5.5.5z"/><path d="m293.4866816 35.80175429c.9625005.04822318 1.8244194.38578542 2.5336303.96446354.9625006.86801719 1.2157902 2.31541137.7598689 3.47276767-1.7737615 3.4734665-5.9879135 5.7923723-8.8673392 6.5604487-1.7223695.3857854-3.9013944.3857854-5.4725242-.1928927-.7598688.4340086-1.4015359 1.836674-2.3309987 1.2538026-1.3442704-.9994079-.1806065-2.5635162-.9566271-3.6733481-.1600497-.2292348-.5631106-.2460081-.7664764-.6192136-1.0638164-2.218965.2540237-4.3414837 1.7231035-6.02999374 2.4492005-2.60055712 9.4759685-5.49883994 13.3773629-1.73603437zm-8.1581283 1.73603437c-1.3684982.24111589-2.9139319.80791294-3.7494206 1.73673324-.8362228.9281215-1.3684981 1.8331796-.8611847 2.7976432 1.7730273-1.2538026 2.6342121-2.9905359 4.6106053-4.05214467 0-.19289271.3039475-.33756224 0-.48223177zm8.2594441.48223177c-3.4961309-.28933906-6.1310771 2.21896507-8.6140496 4.63082277-.1519738.3857854-1.0638164.819794-.3546055 1.2545015 3.3441572.289339 6.5363406-.6276002 8.9686551-2.74942.7092109-.6276002 1.2157902-1.4473942.8611847-2.31541137-.1519738-.33756224-.5065792-.67512448-.8611847-.8204929zm29.6997403 14.18630707c1.5726526 3.8314471 2.8989773 9.8725234 0 13.5559503-.7859703.8838516-2.1621303 1.6986746-3.0463469 1.0311603-3.2428395-2.6031638-4.6189995-6.3356935-6.6337604-9.6754003-.2947388-.1473086-.2947388.2455143-.4421083.3928229-.7368471 3.3888097.6393128 7.8094913-1.6701869 10.4617579-.8849285.1473086-1.7114788-.3074267-2.0147609-1.1791805-1.1305442-3.4870154.0491232-7.1213395.3438621-10.6083549.687724-1.7684149.9831748-3.8314471 2.5059923-5.1579362 2.4568691.982769 3.6358246 3.7332414 5.0611078 5.7471707 1.031586 1.5221889 1.8666795 3.241501 3.0463469 4.617093 1.031586-.4426374.5239802-1.7890524.4912314-2.6038754-.3929852-3.1923981-1.2772018-6.139282-2.1130071-9.1843716-.0484113-.7856459-.4912315-2.112135.343862-2.6031637 2.2112534.9820574 3.1453051 3.2906039 4.127768 5.2063275m-15.2877377-.7754727c0 .7277428-.5888118 1.6367189-1.0794882 1.7455994-4.7119164.7277428-9.9635769.2908161-14.3803763 1.7455994-.147203.5331629.4906765.6301017.83415.7755097 3.7789199.5816324 7.7548216.7270404 11.4356063 1.6486607 1.9470611.4882059 2.6503641 2.763456 2.797567 4.6544635.0903129 1.4906084-.4906765 3.2966189-1.9627059 4.3144754-3.6324281 2.2787624-9.1784945 2.1818236-12.8592792.0969387-1.407317-.7797244-2.7484994-2.0364155-2.8466347-3.587435.0078224-1.2328077.5397442-2.2021949 1.4229618-2.6665173 3.5335817-1.4063139 7.9020246-.6308041 10.9449299 1.1632647.1962706.9700896-.8668618.9174055-1.3738942 1.2609058-3.3863787 1.9387744-5.9393187-2.1818237-9.0803592-.6792735-.4416088.2915186-.760193 1.103556-.2446271 1.3578445 3.8770552 1.69713 8.1957193.4846936 12.0244181-.5816323.4416088-.1454081.9813529-.5816323 1.0304206-1.0178566-.147203-1.5517219-1.9143494-1.8917099-3.0429053-2.3279341-3.3373111-.8239791-7.0188069-.8239791-10.6014563-1.1632647-.6869471-.145408-1.5623423-.6181599-1.7671464-1.1632646-.3925412-1.1639671-.3925412-2.7634559.4913876-3.7335456 4.5640023-3.9751899 11.4846739-3.6359044 17.2760786-2.5695785.3925411.1454081.83415.2908161.9813529.7270404m-21.5687989 1.5852103c.411585 4.6693781.6402434 8.9983834.54878 13.9101802-.0914633.6328255-.7774384.7786995-1.2354179 1.0218229-.7317068.145874-1.676828-.0204365-1.9671248-.4376221-1.0518284-1.7998176-.6859751-4.231756-.7774384-6.4205711.137195-3.4530565.0914633-7.1978611 1.0060968-10.4077943.1756362-.466515.6866379-.8759488 1.098223-.5842008 1.0982229.5842008 1.2811496 1.751193 1.3268813 2.9181852m55.2914859-.8662421c.237297.3969285.48241 1.0101049 0 1.2761466-2.206723.9823625-5.197807.5406195-7.747687.8351148-.686315.5889907-1.225563 1.5706419-.98045 2.4548393.245112.1472477.466069.3720316.735337.343578 1.569431.0981651 3.922511-.7362384 4.952694.7362383.253638.437475-.032682 2.0742717-.735337 2.1112615-1.912589.2454127-5.059265-.2418561-5.982167.2454127-1.177251.785321-1.079206 2.3075917-1.520408 3.5346557.833383.5399081 1.707972-.0120928 2.696948-.1472477 1.814543-.2944954 3.824466-.8344035 5.639009-.441743.343158.6380732.833383 1.3259404.490225 2.1112614-3.089128 2.4548393-7.077002 4.970854-11.32704 3.1910777-1.593587-.7163208-2.304768-3.1419952-1.765521-5.204174.343158-1.4731881 1.863566-2.8965824.932138-4.4679356-.147067-.6871559.245113-1.2761466.833383-1.4233943 1.617742 0 1.274585-2.0130962 2.108678-2.9456649-.932138-1.0314451-3.285929-.9816512-3.040106-3.04383 1.127518-.5889907 2.500148-.3926605 3.775443-.5889907 2.893039-.5897021 6.129235-.93328 9.071295-.5897021.588981.118794 1.373341 1.2768579 1.863566 2.0130963m-71.5828244-11.2156137c4.5883754 3.776849 10.5421672 10.2140331 9.7964121 17.6248114-.8949062 5.8582511-7.0612561 10.2648167-12.282983 11.6671696-5.0725758 1.5017436-11.4385144 1.3515693-16.6105242.1501744-.3480191.9511043-.6960381 2.102441-1.7898123 2.502906-.6967586.2502906-1.5916648.1008417-2.1385519-.3504068-1.5419477-1.4516856-.298302-4.2556658-2.5362879-5.1574375-4.3765377-1.8521504-9.1010945-5.5078442-11.33835982-10.0138006-.29830205-.9017716.04971701-1.8028178.59660409-2.5036315 3.43119403-2.7539221 7.75801473-3.8552008 12.08411493-4.7069143.2485851.1001162.149151-.2502906.3480191-.3504069.2493055-3.0042127.3487396-6.0584835 1.2933627-8.7623475.2154404-.3801516.7457551-.5005812 1.0937742-.2502906 2.7358764 2.102441 1.4425137 6.0584835 2.6357219 8.9125219 5.2217269.2502906 10.4441742.5005812 14.5714064 3.4547358 1.3920762 1.1520623 1.7321694 3.3509922 1.2926422 4.6067981-.4388066 1.2558059-1.8892463 2.1532247-3.232326 2.2533409-.8949062 0-2.586005.0870576-2.4865709-.6014229.099434-.6884805 3.0421044-1.815151 2.1385518-2.7531967-1.299127-1.3501183-7.7990853-2.1532246-11.827604-2.6538058-.4971701-.1001163-.9532696.0500581-.9532696.6006974-.099434 3.8051427-.397736 8.0114758.2485851 11.6664441.049717.2502906.3487395.5506393.5973246.6006974 7.1109731 1.1520623 14.6204029.5005812 20.1901488-3.6049101 2.5860049-2.1031666 3.4319145-5.0573212 2.9837409-8.3118245-2.2379858-9.0626964-11.6366618-14.5204825-19.3449596-18.02600191-7.5094297-3.30456145-15.8143316-5.00726304-24.71583753-4.55601448-1.41729498.10374365-3.66392729.59634457-3.68049962 1.10127866-.01657234.50493409 2.54493435.34605397 2.23798587 1.30151115-.30622795.95618265-2.9088052.38885728-3.67977909.15017436-.77097388-.23723197-.69675864-1.35156927-.49717007-2.05238296 1.93896329-3.45473582 7.35163227-3.7347711 9.79641207-3.85592626 13.52662867-.35040685 26.60580437 4.83604976 35.20972877 11.91746014zm-24.368539 13.4192038c-3.4311941.0500581-7.0619767.400465-10.2438651 1.6018599-.64704168.2502906-1.44251379.9518297-.94534372 1.8028178 1.29336272 1.7520342 3.14153842 3.1921121 4.87370782 4.2056076 1.7321693 1.0142211 4.0277981 2.3033991 6.116633 2.6037478.49717-3.2545033.49717-6.4589485.4481736-9.8135681-.1995886-.1001163 0-.3003488-.2493056-.400465zm104.0560974-4.1072459c-.148192 4.2847359-4.15081 6.9440549-4.15081 11.2280772.148192.1477003.246987.3446341.444576.2461672 3.21226-3.4962874 6.374407-8.4702914 11.068587-9.9472944 1.234934-.0984669 2.354607.9725387 2.816365 1.7724036 1.630112 3.2501203 1.234934 7.8302568-1.038061 10.7849764-2.346732 2.901205-6.423087 5.8116859-11.06787 5.318638-1.927213 4.7278368-3.260941 9.7018408-4.002617 14.8727785-.394463 1.0339021-1.333729.0984669-1.926497-.0984669-4.001901-3.1516533-.71662-11.4949367-.444576-12.5580935.271327-1.0631568 1.342319-3.5662131 2.124086-5.6632721-1.877099-3.3485871-.691563-7.3871558.840471-10.4895757 1.185536-2.0685178 2.816365-4.1370356 4.743577-5.7125055.246987 0 .444577.0492334.592769.2461672zm7.955121 5.318638c-.592768-.0984669-.839755.6892681-1.334444.8376819-2.272279 2.5601386-4.545273 5.1209908-5.682128 8.1741773 1.532034.1969337 2.816365-.787735 4.15081-1.3293028 2.272994-1.4284831 3.705517-3.7924015 3.557325-6.5002404-.098795-.4438145-.493974-.7884485-.691563-1.182316z"/><path d="m804.5 75c12.9678655 0 23.5-10.2858142 23.5-22.9949378 0-12.7097192-10.5321345-23.0050622-23.5-23.0050622-12.9879301 0-23.5 10.295343-23.5 23.0050622 0 12.7091236 10.5120699 22.9949378 23.5 22.9949378"/></g><path d="m804 42v21h6v-1.8882462h-4.2706767v-19.1117538zm-6.5 6c1.3842083 0 2.5-1.1242987 2.5-2.4973025 0-1.3740829-1.1157917-2.5026975-2.5-2.5026975s-2.5 1.1286146-2.5 2.5026975c0 1.3740828 1.1157917 2.4973025 2.5 2.4973025" fill="#000" fill-opacity=".88"/><path d="m805.4321593 33.02712981c-.2435127-.0120577-.7064279-.02712981-.9276386-.02712981-10.7531336 0-19.5045207 8.7562955-19.5045207 19.5051245 0 5.2209804 2.02826762 10.1145945 5.702054 13.7946019 3.6888552 3.671567 8.5838215 5.7002736 13.8024667 5.7002736 5.1987543 0 10.092515-2.0287066 13.7747399-5.7002736 3.6828277-3.6800074 5.7207394-8.5736215 5.7207394-13.7946019v-.8675509h-13.9272368v1.7953903h12.0695486c0 .0391875 0 .229699-.0084386.2791355-.6136037 9.1891667-8.2866636 16.4671892-17.6293525 16.4671892-4.7292089 0-9.163671-1.8394008-12.5011205-5.1799842-3.3482992-3.3267171-5.19332957-7.7585216-5.19332957-12.4947828 0-4.7091313 1.84503037-9.1638454 5.19332957-12.5008115 3.3374495-3.33395172 7.7719116-5.17335254 12.5011205-5.17335254.2037308 0 .6991947 0 .9276386.01205769z" fill="#000" fill-opacity=".88"/><path d="m844.9930326 36.45685142h-6.9930326v31.08196978h21.4788582v-6.0503449h-14.4858256zm29.8694135 19.23721578h5.695462v5.4346154c-1.050099.4104863-3.0979123.8197362-5.0463756.8197362-6.2939702 0-8.3905553-3.2820355-8.3905553-9.9481097 0-6.3569731 1.996633-10.105133 8.2906032-10.105133 3.4977205 0 5.4955578 1.1288372 7.1417566 3.2832718l4.347915-4.1042443c-2.648128-3.89467382-7.294695-5.0742036-11.6389976-5.0742036-9.792895 0-14.9368142 5.4871626-14.9368142 15.9483801 0 10.4105249 4.6453631 16.0516199 14.8874403 16.0516199 4.6947369 0 9.2907265-1.2302224 11.7871195-3.0248633v-15.0779515h-12.1375539z" fill="#fff"/></g></svg>